<?xml version="1.0"?>
<svg version="1.1" xmlns="http://www.w3.org/2000/svg" height="1.2in" width="9.8in" style="background:white">
  <g transform="scale(0.96 0.96) translate(50,10)" style="fill:#000000;stroke:#000000;stroke-width:1.0">
    <path d="M 5,100 920,100 870,50 920,0 5,0 -45,50 Z" style="fill:none"/>
    <circle r="2" cx="-20" cy="40"/>
    <circle r="2" cx="-10" cy="40"/>
    <circle r="2" cx="0" cy="40"/>
    <circle r="2" cx="10" cy="40"/>
    <circle r="2" cx="20" cy="40"/>
    <circle r="2" cx="30" cy="40"/>
    <circle r="2" cx="40" cy="40"/>
    <circle r="2" cx="50" cy="40"/>
    <circle r="2" cx="60" cy="40"/>
    <circle r="3" cx="60" cy="60"/>
    <circle r="3" cx="60" cy="70"/>
    <circle r="3" cx="60" cy="80"/>
    <circle r="2" cx="70" cy="40"/>
    <circle r="3" cx="70" cy="50"/>
    <circle r="3" cx="70" cy="60"/>
    <circle r="2" cx="80" cy="40"/>
    <circle r="3" cx="80" cy="10"/>
    <circle r="3" cx="80" cy="30"/>
    <circle r="3" cx="80" cy="50"/>
    <circle r="3" cx="80" cy="60"/>
    <circle r="3" cx="80" cy="70"/>
    <circle r="3" cx="80" cy="80"/>
    <circle r="2" cx="90" cy="40"/>
    <circle r="3" cx="90" cy="20"/>
    <circle r="3" cx="90" cy="30"/>
    <circle r="3" cx="90" cy="60"/>
    <circle r="3" cx="90" cy="70"/>
    <circle r="3" cx="90" cy="90"/>
    <circle r="2" cx="100" cy="40"/>
    <circle r="3" cx="100" cy="30"/>
    <circle r="3" cx="100" cy="50"/>
    <circle r="3" cx="100" cy="60"/>
    <circle r="3" cx="100" cy="70"/>
    <circle r="3" cx="100" cy="90"/>
    <circle r="2" cx="110" cy="40"/>
    <circle r="3" cx="110" cy="30"/>
    <circle r="3" cx="110" cy="50"/>
    <circle r="3" cx="110" cy="60"/>
    <circle r="3" cx="110" cy="70"/>
    <circle r="2" cx="120" cy="40"/>
    <circle r="3" cx="120" cy="30"/>
    <circle r="3" cx="120" cy="50"/>
    <circle r="3" cx="120" cy="60"/>
    <circle r="3" cx="120" cy="70"/>
    <circle r="3" cx="120" cy="90"/>
    <circle r="2" cx="130" cy="40"/>
    <circle r="3" cx="130" cy="20"/>
    <circle r="3" cx="130" cy="30"/>
    <circle r="3" cx="130" cy="60"/>
    <circle r="3" cx="130" cy="70"/>
    <circle r="3" cx="130" cy="90"/>
    <circle r="2" cx="140" cy="40"/>
    <circle r="3" cx="140" cy="10"/>
    <circle r="3" cx="140" cy="30"/>
    <circle r="3" cx="140" cy="50"/>
    <circle r="3" cx="140" cy="60"/>
    <circle r="3" cx="140" cy="70"/>
    <circle r="3" cx="140" cy="80"/>
    <circle r="2" cx="150" cy="40"/>
    <circle r="3" cx="150" cy="50"/>
    <circle r="3" cx="150" cy="60"/>
    <circle r="2" cx="160" cy="40"/>
    <circle r="3" cx="160" cy="60"/>
    <circle r="3" cx="160" cy="70"/>
    <circle r="3" cx="160" cy="80"/>
    <circle r="2" cx="170" cy="40"/>
    <circle r="2" cx="180" cy="40"/>
    <circle r="2" cx="190" cy="40"/>
    <circle r="2" cx="200" cy="40"/>
    <circle r="3" cx="200" cy="20"/>
    <circle r="3" cx="200" cy="30"/>
    <circle r="3" cx="200" cy="50"/>
    <circle r="3" cx="200" cy="60"/>
    <circle r="2" cx="210" cy="40"/>
    <circle r="3" cx="210" cy="50"/>
    <circle r="3" cx="210" cy="60"/>
    <circle r="3" cx="210" cy="70"/>
    <circle r="3" cx="210" cy="90"/>
    <circle r="2" cx="220" cy="40"/>
    <circle r="3" cx="220" cy="10"/>
    <circle r="3" cx="220" cy="30"/>
    <circle r="3" cx="220" cy="50"/>
    <circle r="3" cx="220" cy="60"/>
    <circle r="3" cx="220" cy="70"/>
    <circle r="3" cx="220" cy="80"/>
    <circle r="2" cx="230" cy="40"/>
    <circle r="3" cx="230" cy="20"/>
    <circle r="3" cx="230" cy="30"/>
    <circle r="3" cx="230" cy="60"/>
    <circle r="3" cx="230" cy="70"/>
    <circle r="2" cx="240" cy="40"/>
    <circle r="3" cx="240" cy="30"/>
    <circle r="3" cx="240" cy="50"/>
    <circle r="3" cx="240" cy="60"/>
    <circle r="3" cx="240" cy="70"/>
    <circle r="2" cx="250" cy="40"/>
    <circle r="3" cx="250" cy="30"/>
    <circle r="3" cx="250" cy="50"/>
    <circle r="3" cx="250" cy="60"/>
    <circle r="3" cx="250" cy="70"/>
    <circle r="2" cx="260" cy="40"/>
    <circle r="3" cx="260" cy="30"/>
    <circle r="3" cx="260" cy="50"/>
    <circle r="3" cx="260" cy="60"/>
    <circle r="3" cx="260" cy="70"/>
    <circle r="2" cx="270" cy="40"/>
    <circle r="3" cx="270" cy="20"/>
    <circle r="3" cx="270" cy="30"/>
    <circle r="3" cx="270" cy="60"/>
    <circle r="3" cx="270" cy="70"/>
    <circle r="2" cx="280" cy="40"/>
    <circle r="3" cx="280" cy="10"/>
    <circle r="3" cx="280" cy="30"/>
    <circle r="3" cx="280" cy="50"/>
    <circle r="3" cx="280" cy="60"/>
    <circle r="3" cx="280" cy="70"/>
    <circle r="3" cx="280" cy="80"/>
    <circle r="2" cx="290" cy="40"/>
    <circle r="3" cx="290" cy="50"/>
    <circle r="3" cx="290" cy="60"/>
    <circle r="3" cx="290" cy="70"/>
    <circle r="3" cx="290" cy="90"/>
    <circle r="2" cx="300" cy="40"/>
    <circle r="3" cx="300" cy="20"/>
    <circle r="3" cx="300" cy="30"/>
    <circle r="3" cx="300" cy="50"/>
    <circle r="3" cx="300" cy="60"/>
    <circle r="2" cx="310" cy="40"/>
    <circle r="2" cx="320" cy="40"/>
    <circle r="2" cx="330" cy="40"/>
    <circle r="2" cx="340" cy="40"/>
    <circle r="3" cx="340" cy="60"/>
    <circle r="3" cx="340" cy="70"/>
    <circle r="3" cx="340" cy="80"/>
    <circle r="2" cx="350" cy="40"/>
    <circle r="3" cx="350" cy="50"/>
    <circle r="3" cx="350" cy="60"/>
    <circle r="2" cx="360" cy="40"/>
    <circle r="3" cx="360" cy="10"/>
    <circle r="3" cx="360" cy="30"/>
    <circle r="3" cx="360" cy="50"/>
    <circle r="3" cx="360" cy="60"/>
    <circle r="3" cx="360" cy="70"/>
    <circle r="3" cx="360" cy="80"/>
    <circle r="2" cx="370" cy="40"/>
    <circle r="3" cx="370" cy="20"/>
    <circle r="3" cx="370" cy="30"/>
    <circle r="3" cx="370" cy="60"/>
    <circle r="3" cx="370" cy="70"/>
    <circle r="3" cx="370" cy="90"/>
    <circle r="2" cx="380" cy="40"/>
    <circle r="3" cx="380" cy="30"/>
    <circle r="3" cx="380" cy="50"/>
    <circle r="3" cx="380" cy="60"/>
    <circle r="3" cx="380" cy="70"/>
    <circle r="3" cx="380" cy="90"/>
    <circle r="2" cx="390" cy="40"/>
    <circle r="3" cx="390" cy="30"/>
    <circle r="3" cx="390" cy="50"/>
    <circle r="3" cx="390" cy="60"/>
    <circle r="3" cx="390" cy="70"/>
    <circle r="2" cx="400" cy="40"/>
    <circle r="3" cx="400" cy="30"/>
    <circle r="3" cx="400" cy="50"/>
    <circle r="3" cx="400" cy="60"/>
    <circle r="3" cx="400" cy="70"/>
    <circle r="3" cx="400" cy="90"/>
    <circle r="2" cx="410" cy="40"/>
    <circle r="3" cx="410" cy="20"/>
    <circle r="3" cx="410" cy="30"/>
    <circle r="3" cx="410" cy="60"/>
    <circle r="3" cx="410" cy="70"/>
    <circle r="3" cx="410" cy="90"/>
    <circle r="2" cx="420" cy="40"/>
    <circle r="3" cx="420" cy="10"/>
    <circle r="3" cx="420" cy="30"/>
    <circle r="3" cx="420" cy="50"/>
    <circle r="3" cx="420" cy="60"/>
    <circle r="3" cx="420" cy="70"/>
    <circle r="3" cx="420" cy="80"/>
    <circle r="2" cx="430" cy="40"/>
    <circle r="3" cx="430" cy="50"/>
    <circle r="3" cx="430" cy="60"/>
    <circle r="2" cx="440" cy="40"/>
    <circle r="3" cx="440" cy="60"/>
    <circle r="3" cx="440" cy="70"/>
    <circle r="3" cx="440" cy="80"/>
    <circle r="2" cx="450" cy="40"/>
    <circle r="2" cx="460" cy="40"/>
    <circle r="2" cx="470" cy="40"/>
    <circle r="2" cx="480" cy="40"/>
    <circle r="3" cx="480" cy="20"/>
    <circle r="3" cx="480" cy="30"/>
    <circle r="3" cx="480" cy="50"/>
    <circle r="3" cx="480" cy="60"/>
    <circle r="2" cx="490" cy="40"/>
    <circle r="3" cx="490" cy="50"/>
    <circle r="3" cx="490" cy="60"/>
    <circle r="3" cx="490" cy="70"/>
    <circle r="3" cx="490" cy="90"/>
    <circle r="2" cx="500" cy="40"/>
    <circle r="3" cx="500" cy="10"/>
    <circle r="3" cx="500" cy="30"/>
    <circle r="3" cx="500" cy="50"/>
    <circle r="3" cx="500" cy="60"/>
    <circle r="3" cx="500" cy="70"/>
    <circle r="3" cx="500" cy="80"/>
    <circle r="2" cx="510" cy="40"/>
    <circle r="3" cx="510" cy="20"/>
    <circle r="3" cx="510" cy="30"/>
    <circle r="3" cx="510" cy="60"/>
    <circle r="3" cx="510" cy="70"/>
    <circle r="2" cx="520" cy="40"/>
    <circle r="3" cx="520" cy="30"/>
    <circle r="3" cx="520" cy="50"/>
    <circle r="3" cx="520" cy="60"/>
    <circle r="3" cx="520" cy="70"/>
    <circle r="2" cx="530" cy="40"/>
    <circle r="3" cx="530" cy="30"/>
    <circle r="3" cx="530" cy="50"/>
    <circle r="3" cx="530" cy="60"/>
    <circle r="3" cx="530" cy="70"/>
    <circle r="2" cx="540" cy="40"/>
    <circle r="3" cx="540" cy="30"/>
    <circle r="3" cx="540" cy="50"/>
    <circle r="3" cx="540" cy="60"/>
    <circle r="3" cx="540" cy="70"/>
    <circle r="2" cx="550" cy="40"/>
    <circle r="3" cx="550" cy="20"/>
    <circle r="3" cx="550" cy="30"/>
    <circle r="3" cx="550" cy="60"/>
    <circle r="3" cx="550" cy="70"/>
    <circle r="2" cx="560" cy="40"/>
    <circle r="3" cx="560" cy="10"/>
    <circle r="3" cx="560" cy="30"/>
    <circle r="3" cx="560" cy="50"/>
    <circle r="3" cx="560" cy="60"/>
    <circle r="3" cx="560" cy="70"/>
    <circle r="3" cx="560" cy="80"/>
    <circle r="2" cx="570" cy="40"/>
    <circle r="3" cx="570" cy="50"/>
    <circle r="3" cx="570" cy="60"/>
    <circle r="3" cx="570" cy="70"/>
    <circle r="3" cx="570" cy="90"/>
    <circle r="2" cx="580" cy="40"/>
    <circle r="3" cx="580" cy="20"/>
    <circle r="3" cx="580" cy="30"/>
    <circle r="3" cx="580" cy="50"/>
    <circle r="3" cx="580" cy="60"/>
    <circle r="2" cx="590" cy="40"/>
    <circle r="2" cx="600" cy="40"/>
    <circle r="2" cx="610" cy="40"/>
    <circle r="2" cx="620" cy="40"/>
    <circle r="3" cx="620" cy="60"/>
    <circle r="3" cx="620" cy="70"/>
    <circle r="3" cx="620" cy="80"/>
    <circle r="2" cx="630" cy="40"/>
    <circle r="3" cx="630" cy="50"/>
    <circle r="3" cx="630" cy="60"/>
    <circle r="2" cx="640" cy="40"/>
    <circle r="3" cx="640" cy="10"/>
    <circle r="3" cx="640" cy="30"/>
    <circle r="3" cx="640" cy="50"/>
    <circle r="3" cx="640" cy="60"/>
    <circle r="3" cx="640" cy="70"/>
    <circle r="3" cx="640" cy="80"/>
    <circle r="2" cx="650" cy="40"/>
    <circle r="3" cx="650" cy="20"/>
    <circle r="3" cx="650" cy="30"/>
    <circle r="3" cx="650" cy="60"/>
    <circle r="3" cx="650" cy="70"/>
    <circle r="3" cx="650" cy="90"/>
    <circle r="2" cx="660" cy="40"/>
    <circle r="3" cx="660" cy="30"/>
    <circle r="3" cx="660" cy="50"/>
    <circle r="3" cx="660" cy="60"/>
    <circle r="3" cx="660" cy="70"/>
    <circle r="3" cx="660" cy="90"/>
    <circle r="2" cx="670" cy="40"/>
    <circle r="3" cx="670" cy="30"/>
    <circle r="3" cx="670" cy="50"/>
    <circle r="3" cx="670" cy="60"/>
    <circle r="3" cx="670" cy="70"/>
    <circle r="2" cx="680" cy="40"/>
    <circle r="3" cx="680" cy="30"/>
    <circle r="3" cx="680" cy="50"/>
    <circle r="3" cx="680" cy="60"/>
    <circle r="3" cx="680" cy="70"/>
    <circle r="3" cx="680" cy="90"/>
    <circle r="2" cx="690" cy="40"/>
    <circle r="3" cx="690" cy="20"/>
    <circle r="3" cx="690" cy="30"/>
    <circle r="3" cx="690" cy="60"/>
    <circle r="3" cx="690" cy="70"/>
    <circle r="3" cx="690" cy="90"/>
    <circle r="2" cx="700" cy="40"/>
    <circle r="3" cx="700" cy="10"/>
    <circle r="3" cx="700" cy="30"/>
    <circle r="3" cx="700" cy="50"/>
    <circle r="3" cx="700" cy="60"/>
    <circle r="3" cx="700" cy="70"/>
    <circle r="3" cx="700" cy="80"/>
    <circle r="2" cx="710" cy="40"/>
    <circle r="3" cx="710" cy="50"/>
    <circle r="3" cx="710" cy="60"/>
    <circle r="2" cx="720" cy="40"/>
    <circle r="3" cx="720" cy="60"/>
    <circle r="3" cx="720" cy="70"/>
    <circle r="3" cx="720" cy="80"/>
    <circle r="2" cx="730" cy="40"/>
    <circle r="2" cx="740" cy="40"/>
    <circle r="2" cx="750" cy="40"/>
    <circle r="2" cx="760" cy="40"/>
    <circle r="2" cx="770" cy="40"/>
    <circle r="2" cx="780" cy="40"/>
    <circle r="2" cx="790" cy="40"/>
    <circle r="2" cx="800" cy="40"/>
    <circle r="2" cx="810" cy="40"/>
    <circle r="2" cx="820" cy="40"/>
    <circle r="2" cx="830" cy="40"/>
    <circle r="2" cx="840" cy="40"/>
    <circle r="2" cx="850" cy="40"/>
    <circle r="2" cx="860" cy="40"/>
    <circle r="2" cx="870" cy="40"/>
  </g>
</svg>