<?xml version="1.0"?>
<svg version="1.1" xmlns="http://www.w3.org/2000/svg" height="10.2in" width="17.6in" style="background:white">
  <g id="tape" style="stroke-width:1.0">
    <!-- row 0 -->
    <g style="fill:none;stroke:#1A1A1A"><!-- start, 169.0 bits -->
      <line x1="17.6in" y1="0.1in" x2="0.7in" y2="0.1in"/>
      <line x1="0.7in" y1="0.1in" x2="0.2in" y2="0.6in" />
      <line x1="0.2in" y1="0.6in" x2="0.7in" y2="1.1in" />
      <line x1="0.7in" y1="1.1in" x2="17.6in" y2="1.1in" />
    </g>
    <g id="pattern " style="fill:#000000;stroke:#000000;">
      <circle r="0.0125in" cx="0.4in" cy="0.5in"/><!-- lead-in -->
      <circle r="0.0125in" cx="0.5in" cy="0.5in"/><!-- lead-in -->
      <circle r="0.0125in" cx="0.6in" cy="0.5in"/><!-- lead-in -->
      <circle r="0.0125in" cx="0.7in" cy="0.5in"/>
      <circle r="0.0125in" cx="0.8in" cy="0.5in"/>
      <circle r="0.0125in" cx="0.9in" cy="0.5in"/>
      <circle r="0.0125in" cx="1.0in" cy="0.5in"/>
      <circle r="0.0125in" cx="1.1in" cy="0.5in"/>
      <circle r="0.0125in" cx="1.2in" cy="0.5in"/>
      <circle r="0.025in" cx="1.2in" cy="0.2in"/>
      <circle r="0.025in" cx="1.2in" cy="1.0in"/>
      <circle r="0.0125in" cx="1.3in" cy="0.5in"/>
      <circle r="0.025in" cx="1.3in" cy="0.2in"/>
      <circle r="0.025in" cx="1.3in" cy="0.30000000000000004in"/>
      <circle r="0.025in" cx="1.3in" cy="0.4in"/>
      <circle r="0.025in" cx="1.3in" cy="0.6in"/>
      <circle r="0.025in" cx="1.3in" cy="0.7in"/>
      <circle r="0.025in" cx="1.3in" cy="0.7999999999999999in"/>
      <circle r="0.025in" cx="1.3in" cy="0.9in"/>
      <circle r="0.025in" cx="1.3in" cy="1.0in"/>
      <circle r="0.0125in" cx="1.4in" cy="0.5in"/>
      <circle r="0.025in" cx="1.4in" cy="0.2in"/>
      <circle r="0.025in" cx="1.4in" cy="1.0in"/>
      <circle r="0.0125in" cx="1.5in" cy="0.5in"/>
      <circle r="0.025in" cx="1.5in" cy="0.2in"/>
      <circle r="0.025in" cx="1.5in" cy="1.0in"/>
      <circle r="0.0125in" cx="1.6in" cy="0.5in"/>
      <circle r="0.025in" cx="1.6in" cy="0.30000000000000004in"/>
      <circle r="0.025in" cx="1.6in" cy="0.4in"/>
      <circle r="0.025in" cx="1.6in" cy="0.6in"/>
      <circle r="0.025in" cx="1.6in" cy="0.7in"/>
      <circle r="0.025in" cx="1.6in" cy="0.7999999999999999in"/>
      <circle r="0.025in" cx="1.6in" cy="0.9in"/>
      <circle r="0.0125in" cx="1.7in" cy="0.5in"/>
      <circle r="0.0125in" cx="1.8in" cy="0.5in"/>
      <circle r="0.025in" cx="1.8in" cy="0.2in"/>
      <circle r="0.025in" cx="1.8in" cy="0.30000000000000004in"/>
      <circle r="0.025in" cx="1.8in" cy="0.4in"/>
      <circle r="0.025in" cx="1.8in" cy="0.6in"/>
      <circle r="0.025in" cx="1.8in" cy="0.7in"/>
      <circle r="0.025in" cx="1.8in" cy="0.7999999999999999in"/>
      <circle r="0.025in" cx="1.8in" cy="0.9in"/>
      <circle r="0.025in" cx="1.8in" cy="1.0in"/>
      <circle r="0.0125in" cx="1.9in" cy="0.5in"/>
      <circle r="0.025in" cx="1.9in" cy="0.2in"/>
      <circle r="0.025in" cx="1.9in" cy="0.6in"/>
      <circle r="0.025in" cx="1.9in" cy="1.0in"/>
      <circle r="0.0125in" cx="2.0in" cy="0.5in"/>
      <circle r="0.025in" cx="2.0in" cy="0.2in"/>
      <circle r="0.025in" cx="2.0in" cy="0.6in"/>
      <circle r="0.025in" cx="2.0in" cy="1.0in"/>
      <circle r="0.0125in" cx="2.1in" cy="0.5in"/>
      <circle r="0.025in" cx="2.1in" cy="0.2in"/>
      <circle r="0.025in" cx="2.1in" cy="0.6in"/>
      <circle r="0.025in" cx="2.1in" cy="1.0in"/>
      <circle r="0.0125in" cx="2.2in" cy="0.5in"/>
      <circle r="0.025in" cx="2.2in" cy="0.2in"/>
      <circle r="0.025in" cx="2.2in" cy="1.0in"/>
      <circle r="0.0125in" cx="2.3in" cy="0.5in"/>
      <circle r="0.0125in" cx="2.4in" cy="0.5in"/>
      <circle r="0.025in" cx="2.4in" cy="0.30000000000000004in"/>
      <circle r="0.025in" cx="2.4in" cy="0.4in"/>
      <circle r="0.025in" cx="2.4in" cy="0.6in"/>
      <circle r="0.025in" cx="2.4in" cy="0.7in"/>
      <circle r="0.025in" cx="2.4in" cy="0.7999999999999999in"/>
      <circle r="0.025in" cx="2.4in" cy="0.9in"/>
      <circle r="0.0125in" cx="2.5in" cy="0.5in"/>
      <circle r="0.025in" cx="2.5in" cy="0.2in"/>
      <circle r="0.025in" cx="2.5in" cy="1.0in"/>
      <circle r="0.0125in" cx="2.6in" cy="0.5in"/>
      <circle r="0.025in" cx="2.6in" cy="0.2in"/>
      <circle r="0.025in" cx="2.6in" cy="1.0in"/>
      <circle r="0.0125in" cx="2.7in" cy="0.5in"/>
      <circle r="0.025in" cx="2.7in" cy="0.2in"/>
      <circle r="0.025in" cx="2.7in" cy="1.0in"/>
      <circle r="0.0125in" cx="2.8in" cy="0.5in"/>
      <circle r="0.025in" cx="2.8in" cy="0.30000000000000004in"/>
      <circle r="0.025in" cx="2.8in" cy="0.9in"/>
      <circle r="0.0125in" cx="2.9in" cy="0.5in"/>
      <circle r="0.0125in" cx="3.0in" cy="0.5in"/>
      <circle r="0.025in" cx="3.0in" cy="0.6in"/>
      <circle r="0.0125in" cx="3.1in" cy="0.5in"/>
      <circle r="0.025in" cx="3.1in" cy="0.6in"/>
      <circle r="0.0125in" cx="3.2in" cy="0.5in"/>
      <circle r="0.025in" cx="3.2in" cy="0.6in"/>
      <circle r="0.0125in" cx="3.3in" cy="0.5in"/>
      <circle r="0.025in" cx="3.3in" cy="0.6in"/>
      <circle r="0.0125in" cx="3.4in" cy="0.5in"/>
      <circle r="0.025in" cx="3.4in" cy="0.6in"/>
      <circle r="0.0125in" cx="3.5in" cy="0.5in"/>
      <circle r="0.0125in" cx="3.6in" cy="0.5in"/>
      <circle r="0.025in" cx="3.6in" cy="0.4in"/>
      <circle r="0.025in" cx="3.6in" cy="1.0in"/>
      <circle r="0.0125in" cx="3.7in" cy="0.5in"/>
      <circle r="0.025in" cx="3.7in" cy="0.30000000000000004in"/>
      <circle r="0.025in" cx="3.7in" cy="1.0in"/>
      <circle r="0.0125in" cx="3.8in" cy="0.5in"/>
      <circle r="0.025in" cx="3.8in" cy="0.2in"/>
      <circle r="0.025in" cx="3.8in" cy="0.30000000000000004in"/>
      <circle r="0.025in" cx="3.8in" cy="0.4in"/>
      <circle r="0.025in" cx="3.8in" cy="0.6in"/>
      <circle r="0.025in" cx="3.8in" cy="0.7in"/>
      <circle r="0.025in" cx="3.8in" cy="0.7999999999999999in"/>
      <circle r="0.025in" cx="3.8in" cy="0.9in"/>
      <circle r="0.025in" cx="3.8in" cy="1.0in"/>
      <circle r="0.0125in" cx="3.9in" cy="0.5in"/>
      <circle r="0.025in" cx="3.9in" cy="1.0in"/>
      <circle r="0.0125in" cx="4.0in" cy="0.5in"/>
      <circle r="0.025in" cx="4.0in" cy="1.0in"/>
      <circle r="0.0125in" cx="4.1in" cy="0.5in"/>
      <circle r="0.0125in" cx="4.2in" cy="0.5in"/>
      <circle r="0.025in" cx="4.2in" cy="0.4in"/>
      <circle r="0.025in" cx="4.2in" cy="1.0in"/>
      <circle r="0.0125in" cx="4.3in" cy="0.5in"/>
      <circle r="0.025in" cx="4.3in" cy="0.30000000000000004in"/>
      <circle r="0.025in" cx="4.3in" cy="1.0in"/>
      <circle r="0.0125in" cx="4.4in" cy="0.5in"/>
      <circle r="0.025in" cx="4.4in" cy="0.2in"/>
      <circle r="0.025in" cx="4.4in" cy="0.30000000000000004in"/>
      <circle r="0.025in" cx="4.4in" cy="0.4in"/>
      <circle r="0.025in" cx="4.4in" cy="0.6in"/>
      <circle r="0.025in" cx="4.4in" cy="0.7in"/>
      <circle r="0.025in" cx="4.4in" cy="0.7999999999999999in"/>
      <circle r="0.025in" cx="4.4in" cy="0.9in"/>
      <circle r="0.025in" cx="4.4in" cy="1.0in"/>
      <circle r="0.0125in" cx="4.5in" cy="0.5in"/>
      <circle r="0.025in" cx="4.5in" cy="1.0in"/>
      <circle r="0.0125in" cx="4.6in" cy="0.5in"/>
      <circle r="0.025in" cx="4.6in" cy="1.0in"/>
      <circle r="0.0125in" cx="4.7in" cy="0.5in"/>
      <circle r="0.0125in" cx="4.8in" cy="0.5in"/>
      <circle r="0.025in" cx="4.8in" cy="0.6in"/>
      <circle r="0.0125in" cx="4.9in" cy="0.5in"/>
      <circle r="0.025in" cx="4.9in" cy="0.6in"/>
      <circle r="0.0125in" cx="5.0in" cy="0.5in"/>
      <circle r="0.025in" cx="5.0in" cy="0.6in"/>
      <circle r="0.0125in" cx="5.1in" cy="0.5in"/>
      <circle r="0.025in" cx="5.1in" cy="0.6in"/>
      <circle r="0.0125in" cx="5.2in" cy="0.5in"/>
      <circle r="0.025in" cx="5.2in" cy="0.6in"/>
      <circle r="0.0125in" cx="5.3in" cy="0.5in"/>
      <circle r="0.0125in" cx="5.4in" cy="0.5in"/>
      <circle r="0.025in" cx="5.4in" cy="0.2in"/>
      <circle r="0.025in" cx="5.4in" cy="0.30000000000000004in"/>
      <circle r="0.025in" cx="5.4in" cy="0.4in"/>
      <circle r="0.025in" cx="5.4in" cy="0.6in"/>
      <circle r="0.025in" cx="5.4in" cy="0.7in"/>
      <circle r="0.025in" cx="5.4in" cy="0.7999999999999999in"/>
      <circle r="0.025in" cx="5.4in" cy="0.9in"/>
      <circle r="0.025in" cx="5.4in" cy="1.0in"/>
      <circle r="0.0125in" cx="5.5in" cy="0.5in"/>
      <circle r="0.025in" cx="5.5in" cy="1.0in"/>
      <circle r="0.0125in" cx="5.6in" cy="0.5in"/>
      <circle r="0.025in" cx="5.6in" cy="1.0in"/>
      <circle r="0.0125in" cx="5.7in" cy="0.5in"/>
      <circle r="0.025in" cx="5.7in" cy="1.0in"/>
      <circle r="0.0125in" cx="5.8in" cy="0.5in"/>
      <circle r="0.025in" cx="5.8in" cy="1.0in"/>
      <circle r="0.0125in" cx="5.9in" cy="0.5in"/>
      <circle r="0.0125in" cx="6.0in" cy="0.5in"/>
      <circle r="0.025in" cx="6.0in" cy="0.30000000000000004in"/>
      <circle r="0.025in" cx="6.0in" cy="0.4in"/>
      <circle r="0.025in" cx="6.0in" cy="0.9in"/>
      <circle r="0.025in" cx="6.0in" cy="1.0in"/>
      <circle r="0.0125in" cx="6.1in" cy="0.5in"/>
      <circle r="0.025in" cx="6.1in" cy="0.2in"/>
      <circle r="0.025in" cx="6.1in" cy="0.7999999999999999in"/>
      <circle r="0.025in" cx="6.1in" cy="1.0in"/>
      <circle r="0.0125in" cx="6.2in" cy="0.5in"/>
      <circle r="0.025in" cx="6.2in" cy="0.2in"/>
      <circle r="0.025in" cx="6.2in" cy="0.7in"/>
      <circle r="0.025in" cx="6.2in" cy="1.0in"/>
      <circle r="0.0125in" cx="6.3in" cy="0.5in"/>
      <circle r="0.025in" cx="6.3in" cy="0.2in"/>
      <circle r="0.025in" cx="6.3in" cy="0.6in"/>
      <circle r="0.025in" cx="6.3in" cy="1.0in"/>
      <circle r="0.0125in" cx="6.4in" cy="0.5in"/>
      <circle r="0.025in" cx="6.4in" cy="0.30000000000000004in"/>
      <circle r="0.025in" cx="6.4in" cy="0.4in"/>
      <circle r="0.025in" cx="6.4in" cy="1.0in"/>
      <circle r="0.0125in" cx="6.5in" cy="0.5in"/>
      <circle r="0.0125in" cx="6.6in" cy="0.5in"/>
      <circle r="0.025in" cx="6.6in" cy="0.2in"/>
      <circle r="0.025in" cx="6.6in" cy="0.30000000000000004in"/>
      <circle r="0.025in" cx="6.6in" cy="0.4in"/>
      <circle r="0.025in" cx="6.6in" cy="0.6in"/>
      <circle r="0.025in" cx="6.6in" cy="0.7in"/>
      <circle r="0.025in" cx="6.6in" cy="0.7999999999999999in"/>
      <circle r="0.025in" cx="6.6in" cy="0.9in"/>
      <circle r="0.025in" cx="6.6in" cy="1.0in"/>
      <circle r="0.0125in" cx="6.7in" cy="0.5in"/>
      <circle r="0.025in" cx="6.7in" cy="0.2in"/>
      <circle r="0.025in" cx="6.7in" cy="0.6in"/>
      <circle r="0.0125in" cx="6.8in" cy="0.5in"/>
      <circle r="0.025in" cx="6.8in" cy="0.2in"/>
      <circle r="0.025in" cx="6.8in" cy="0.6in"/>
      <circle r="0.0125in" cx="6.9in" cy="0.5in"/>
      <circle r="0.025in" cx="6.9in" cy="0.2in"/>
      <circle r="0.025in" cx="6.9in" cy="0.6in"/>
      <circle r="0.0125in" cx="7.0in" cy="0.5in"/>
      <circle r="0.025in" cx="7.0in" cy="0.30000000000000004in"/>
      <circle r="0.025in" cx="7.0in" cy="0.4in"/>
      <circle r="0.0125in" cx="7.1in" cy="0.5in"/>
      <circle r="0.0125in" cx="7.2in" cy="0.5in"/>
      <circle r="0.025in" cx="7.2in" cy="0.30000000000000004in"/>
      <circle r="0.025in" cx="7.2in" cy="0.4in"/>
      <circle r="0.025in" cx="7.2in" cy="0.6in"/>
      <circle r="0.025in" cx="7.2in" cy="0.7in"/>
      <circle r="0.025in" cx="7.2in" cy="0.7999999999999999in"/>
      <circle r="0.025in" cx="7.2in" cy="0.9in"/>
      <circle r="0.0125in" cx="7.3in" cy="0.5in"/>
      <circle r="0.025in" cx="7.3in" cy="0.2in"/>
      <circle r="0.025in" cx="7.3in" cy="1.0in"/>
      <circle r="0.0125in" cx="7.4in" cy="0.5in"/>
      <circle r="0.025in" cx="7.4in" cy="0.2in"/>
      <circle r="0.025in" cx="7.4in" cy="1.0in"/>
      <circle r="0.0125in" cx="7.5in" cy="0.5in"/>
      <circle r="0.025in" cx="7.5in" cy="0.2in"/>
      <circle r="0.025in" cx="7.5in" cy="1.0in"/>
      <circle r="0.0125in" cx="7.6in" cy="0.5in"/>
      <circle r="0.025in" cx="7.6in" cy="0.30000000000000004in"/>
      <circle r="0.025in" cx="7.6in" cy="0.9in"/>
      <circle r="0.0125in" cx="7.7in" cy="0.5in"/>
      <circle r="0.0125in" cx="7.8in" cy="0.5in"/>
      <circle r="0.025in" cx="7.8in" cy="0.6in"/>
      <circle r="0.0125in" cx="7.9in" cy="0.5in"/>
      <circle r="0.025in" cx="7.9in" cy="0.6in"/>
      <circle r="0.0125in" cx="8.0in" cy="0.5in"/>
      <circle r="0.025in" cx="8.0in" cy="0.6in"/>
      <circle r="0.0125in" cx="8.1in" cy="0.5in"/>
      <circle r="0.025in" cx="8.1in" cy="0.6in"/>
      <circle r="0.0125in" cx="8.2in" cy="0.5in"/>
      <circle r="0.025in" cx="8.2in" cy="0.6in"/>
      <circle r="0.0125in" cx="8.3in" cy="0.5in"/>
      <circle r="0.0125in" cx="8.4in" cy="0.5in"/>
      <circle r="0.025in" cx="8.4in" cy="0.2in"/>
      <circle r="0.025in" cx="8.4in" cy="0.30000000000000004in"/>
      <circle r="0.025in" cx="8.4in" cy="0.4in"/>
      <circle r="0.025in" cx="8.4in" cy="0.6in"/>
      <circle r="0.025in" cx="8.4in" cy="0.7in"/>
      <circle r="0.025in" cx="8.4in" cy="0.7999999999999999in"/>
      <circle r="0.025in" cx="8.4in" cy="0.9in"/>
      <circle r="0.025in" cx="8.4in" cy="1.0in"/>
      <circle r="0.0125in" cx="8.5in" cy="0.5in"/>
      <circle r="0.025in" cx="8.5in" cy="0.2in"/>
      <circle r="0.025in" cx="8.5in" cy="0.6in"/>
      <circle r="0.0125in" cx="8.6in" cy="0.5in"/>
      <circle r="0.025in" cx="8.6in" cy="0.2in"/>
      <circle r="0.025in" cx="8.6in" cy="0.6in"/>
      <circle r="0.0125in" cx="8.7in" cy="0.5in"/>
      <circle r="0.025in" cx="8.7in" cy="0.2in"/>
      <circle r="0.025in" cx="8.7in" cy="0.6in"/>
      <circle r="0.0125in" cx="8.8in" cy="0.5in"/>
      <circle r="0.025in" cx="8.8in" cy="0.30000000000000004in"/>
      <circle r="0.025in" cx="8.8in" cy="0.4in"/>
      <circle r="0.0125in" cx="8.9in" cy="0.5in"/>
      <circle r="0.0125in" cx="9.0in" cy="0.5in"/>
      <circle r="0.025in" cx="9.0in" cy="0.30000000000000004in"/>
      <circle r="0.025in" cx="9.0in" cy="0.4in"/>
      <circle r="0.025in" cx="9.0in" cy="0.6in"/>
      <circle r="0.025in" cx="9.0in" cy="0.7in"/>
      <circle r="0.025in" cx="9.0in" cy="0.7999999999999999in"/>
      <circle r="0.025in" cx="9.0in" cy="0.9in"/>
      <circle r="0.0125in" cx="9.1in" cy="0.5in"/>
      <circle r="0.025in" cx="9.1in" cy="0.2in"/>
      <circle r="0.025in" cx="9.1in" cy="1.0in"/>
      <circle r="0.0125in" cx="9.2in" cy="0.5in"/>
      <circle r="0.025in" cx="9.2in" cy="0.2in"/>
      <circle r="0.025in" cx="9.2in" cy="1.0in"/>
      <circle r="0.0125in" cx="9.3in" cy="0.5in"/>
      <circle r="0.025in" cx="9.3in" cy="0.2in"/>
      <circle r="0.025in" cx="9.3in" cy="1.0in"/>
      <circle r="0.0125in" cx="9.4in" cy="0.5in"/>
      <circle r="0.025in" cx="9.4in" cy="0.30000000000000004in"/>
      <circle r="0.025in" cx="9.4in" cy="0.4in"/>
      <circle r="0.025in" cx="9.4in" cy="0.6in"/>
      <circle r="0.025in" cx="9.4in" cy="0.7in"/>
      <circle r="0.025in" cx="9.4in" cy="0.7999999999999999in"/>
      <circle r="0.025in" cx="9.4in" cy="0.9in"/>
      <circle r="0.0125in" cx="9.5in" cy="0.5in"/>
      <circle r="0.0125in" cx="9.6in" cy="0.5in"/>
      <circle r="0.0125in" cx="9.7in" cy="0.5in"/>
      <circle r="0.0125in" cx="9.8in" cy="0.5in"/>
      <circle r="0.0125in" cx="9.9in" cy="0.5in"/>
      <circle r="0.0125in" cx="10.0in" cy="0.5in"/>
      <circle r="0.0125in" cx="10.1in" cy="0.5in"/>
      <circle r="0.0125in" cx="10.2in" cy="0.5in"/>
      <circle r="0.025in" cx="10.2in" cy="0.7in"/>
      <circle r="0.025in" cx="10.2in" cy="0.7999999999999999in"/>
      <circle r="0.025in" cx="10.2in" cy="0.9in"/>
      <circle r="0.025in" cx="10.2in" cy="1.0in"/>
      <circle r="0.0125in" cx="10.3in" cy="0.5in"/>
      <circle r="0.025in" cx="10.3in" cy="0.6in"/>
      <circle r="0.025in" cx="10.3in" cy="0.7999999999999999in"/>
      <circle r="0.0125in" cx="10.4in" cy="0.5in"/>
      <circle r="0.025in" cx="10.4in" cy="0.6in"/>
      <circle r="0.025in" cx="10.4in" cy="0.7999999999999999in"/>
      <circle r="0.0125in" cx="10.5in" cy="0.5in"/>
      <circle r="0.025in" cx="10.5in" cy="0.7in"/>
      <circle r="0.025in" cx="10.5in" cy="0.7999999999999999in"/>
      <circle r="0.025in" cx="10.5in" cy="0.9in"/>
      <circle r="0.025in" cx="10.5in" cy="1.0in"/>
      <circle r="0.0125in" cx="10.6in" cy="0.5in"/>
      <circle r="0.0125in" cx="10.7in" cy="0.5in"/>
      <circle r="0.025in" cx="10.7in" cy="0.6in"/>
      <circle r="0.025in" cx="10.7in" cy="0.7in"/>
      <circle r="0.025in" cx="10.7in" cy="0.7999999999999999in"/>
      <circle r="0.025in" cx="10.7in" cy="0.9in"/>
      <circle r="0.025in" cx="10.7in" cy="1.0in"/>
      <circle r="0.0125in" cx="10.8in" cy="0.5in"/>
      <circle r="0.025in" cx="10.8in" cy="0.6in"/>
      <circle r="0.025in" cx="10.8in" cy="0.7999999999999999in"/>
      <circle r="0.025in" cx="10.8in" cy="1.0in"/>
      <circle r="0.0125in" cx="10.9in" cy="0.5in"/>
      <circle r="0.025in" cx="10.9in" cy="0.6in"/>
      <circle r="0.025in" cx="10.9in" cy="0.7999999999999999in"/>
      <circle r="0.025in" cx="10.9in" cy="1.0in"/>
      <circle r="0.0125in" cx="11.0in" cy="0.5in"/>
      <circle r="0.025in" cx="11.0in" cy="0.7in"/>
      <circle r="0.025in" cx="11.0in" cy="0.7999999999999999in"/>
      <circle r="0.025in" cx="11.0in" cy="0.9in"/>
      <circle r="0.0125in" cx="11.1in" cy="0.5in"/>
      <circle r="0.0125in" cx="11.2in" cy="0.5in"/>
      <circle r="0.025in" cx="11.2in" cy="0.7in"/>
      <circle r="0.025in" cx="11.2in" cy="1.0in"/>
      <circle r="0.0125in" cx="11.3in" cy="0.5in"/>
      <circle r="0.025in" cx="11.3in" cy="0.6in"/>
      <circle r="0.025in" cx="11.3in" cy="0.7999999999999999in"/>
      <circle r="0.025in" cx="11.3in" cy="1.0in"/>
      <circle r="0.0125in" cx="11.4in" cy="0.5in"/>
      <circle r="0.025in" cx="11.4in" cy="0.6in"/>
      <circle r="0.025in" cx="11.4in" cy="0.7999999999999999in"/>
      <circle r="0.025in" cx="11.4in" cy="1.0in"/>
      <circle r="0.0125in" cx="11.5in" cy="0.5in"/>
      <circle r="0.025in" cx="11.5in" cy="0.6in"/>
      <circle r="0.025in" cx="11.5in" cy="0.9in"/>
      <circle r="0.0125in" cx="11.6in" cy="0.5in"/>
      <circle r="0.0125in" cx="11.7in" cy="0.5in"/>
      <circle r="0.025in" cx="11.7in" cy="0.7in"/>
      <circle r="0.025in" cx="11.7in" cy="0.7999999999999999in"/>
      <circle r="0.025in" cx="11.7in" cy="0.9in"/>
      <circle r="0.0125in" cx="11.8in" cy="0.5in"/>
      <circle r="0.025in" cx="11.8in" cy="0.6in"/>
      <circle r="0.025in" cx="11.8in" cy="1.0in"/>
      <circle r="0.0125in" cx="11.9in" cy="0.5in"/>
      <circle r="0.025in" cx="11.9in" cy="0.6in"/>
      <circle r="0.025in" cx="11.9in" cy="1.0in"/>
      <circle r="0.0125in" cx="12.0in" cy="0.5in"/>
      <circle r="0.025in" cx="12.0in" cy="0.7in"/>
      <circle r="0.025in" cx="12.0in" cy="0.7999999999999999in"/>
      <circle r="0.025in" cx="12.0in" cy="0.9in"/>
      <circle r="0.0125in" cx="12.1in" cy="0.5in"/>
      <circle r="0.0125in" cx="12.2in" cy="0.5in"/>
      <circle r="0.025in" cx="12.2in" cy="0.6in"/>
      <circle r="0.025in" cx="12.2in" cy="0.7in"/>
      <circle r="0.025in" cx="12.2in" cy="0.7999999999999999in"/>
      <circle r="0.025in" cx="12.2in" cy="0.9in"/>
      <circle r="0.025in" cx="12.2in" cy="1.0in"/>
      <circle r="0.0125in" cx="12.3in" cy="0.5in"/>
      <circle r="0.025in" cx="12.3in" cy="1.0in"/>
      <circle r="0.0125in" cx="12.4in" cy="0.5in"/>
      <circle r="0.025in" cx="12.4in" cy="1.0in"/>
      <circle r="0.0125in" cx="12.5in" cy="0.5in"/>
      <circle r="0.0125in" cx="12.6in" cy="0.5in"/>
      <circle r="0.025in" cx="12.6in" cy="0.6in"/>
      <circle r="0.025in" cx="12.6in" cy="0.7in"/>
      <circle r="0.025in" cx="12.6in" cy="0.7999999999999999in"/>
      <circle r="0.025in" cx="12.6in" cy="0.9in"/>
      <circle r="0.0125in" cx="12.7in" cy="0.5in"/>
      <circle r="0.025in" cx="12.7in" cy="1.0in"/>
      <circle r="0.0125in" cx="12.8in" cy="0.5in"/>
      <circle r="0.025in" cx="12.8in" cy="1.0in"/>
      <circle r="0.0125in" cx="12.9in" cy="0.5in"/>
      <circle r="0.025in" cx="12.9in" cy="0.6in"/>
      <circle r="0.025in" cx="12.9in" cy="0.7in"/>
      <circle r="0.025in" cx="12.9in" cy="0.7999999999999999in"/>
      <circle r="0.025in" cx="12.9in" cy="0.9in"/>
      <circle r="0.0125in" cx="13.0in" cy="0.5in"/>
      <circle r="0.0125in" cx="13.1in" cy="0.5in"/>
      <circle r="0.025in" cx="13.1in" cy="0.6in"/>
      <circle r="0.0125in" cx="13.2in" cy="0.5in"/>
      <circle r="0.025in" cx="13.2in" cy="0.6in"/>
      <circle r="0.025in" cx="13.2in" cy="0.7in"/>
      <circle r="0.025in" cx="13.2in" cy="0.7999999999999999in"/>
      <circle r="0.025in" cx="13.2in" cy="0.9in"/>
      <circle r="0.025in" cx="13.2in" cy="1.0in"/>
      <circle r="0.0125in" cx="13.3in" cy="0.5in"/>
      <circle r="0.025in" cx="13.3in" cy="0.6in"/>
      <circle r="0.0125in" cx="13.4in" cy="0.5in"/>
      <circle r="0.0125in" cx="13.5in" cy="0.5in"/>
      <circle r="0.025in" cx="13.5in" cy="0.6in"/>
      <circle r="0.025in" cx="13.5in" cy="0.7in"/>
      <circle r="0.025in" cx="13.5in" cy="0.7999999999999999in"/>
      <circle r="0.025in" cx="13.5in" cy="0.9in"/>
      <circle r="0.025in" cx="13.5in" cy="1.0in"/>
      <circle r="0.0125in" cx="13.6in" cy="0.5in"/>
      <circle r="0.025in" cx="13.6in" cy="0.6in"/>
      <circle r="0.025in" cx="13.6in" cy="0.7999999999999999in"/>
      <circle r="0.025in" cx="13.6in" cy="1.0in"/>
      <circle r="0.0125in" cx="13.7in" cy="0.5in"/>
      <circle r="0.025in" cx="13.7in" cy="0.6in"/>
      <circle r="0.025in" cx="13.7in" cy="0.7999999999999999in"/>
      <circle r="0.025in" cx="13.7in" cy="1.0in"/>
      <circle r="0.0125in" cx="13.8in" cy="0.5in"/>
      <circle r="0.025in" cx="13.8in" cy="0.6in"/>
      <circle r="0.025in" cx="13.8in" cy="0.7999999999999999in"/>
      <circle r="0.025in" cx="13.8in" cy="1.0in"/>
      <circle r="0.0125in" cx="13.9in" cy="0.5in"/>
      <circle r="0.0125in" cx="14.0in" cy="0.5in"/>
      <circle r="0.0125in" cx="14.1in" cy="0.5in"/>
      <circle r="0.0125in" cx="14.2in" cy="0.5in"/>
      <circle r="0.0125in" cx="14.3in" cy="0.5in"/>
      <circle r="0.025in" cx="14.3in" cy="0.6in"/>
      <circle r="0.025in" cx="14.3in" cy="0.7in"/>
      <circle r="0.025in" cx="14.3in" cy="0.7999999999999999in"/>
      <circle r="0.025in" cx="14.3in" cy="0.9in"/>
      <circle r="0.025in" cx="14.3in" cy="1.0in"/>
      <circle r="0.0125in" cx="14.4in" cy="0.5in"/>
      <circle r="0.025in" cx="14.4in" cy="1.0in"/>
      <circle r="0.0125in" cx="14.5in" cy="0.5in"/>
      <circle r="0.025in" cx="14.5in" cy="1.0in"/>
      <circle r="0.0125in" cx="14.6in" cy="0.5in"/>
      <circle r="0.0125in" cx="14.7in" cy="0.5in"/>
      <circle r="0.025in" cx="14.7in" cy="0.7in"/>
      <circle r="0.025in" cx="14.7in" cy="0.7999999999999999in"/>
      <circle r="0.025in" cx="14.7in" cy="0.9in"/>
      <circle r="0.0125in" cx="14.8in" cy="0.5in"/>
      <circle r="0.025in" cx="14.8in" cy="0.6in"/>
      <circle r="0.025in" cx="14.8in" cy="1.0in"/>
      <circle r="0.0125in" cx="14.9in" cy="0.5in"/>
      <circle r="0.025in" cx="14.9in" cy="0.6in"/>
      <circle r="0.025in" cx="14.9in" cy="1.0in"/>
      <circle r="0.0125in" cx="15.0in" cy="0.5in"/>
      <circle r="0.025in" cx="15.0in" cy="0.7in"/>
      <circle r="0.025in" cx="15.0in" cy="0.7999999999999999in"/>
      <circle r="0.025in" cx="15.0in" cy="0.9in"/>
      <circle r="0.0125in" cx="15.1in" cy="0.5in"/>
      <circle r="0.0125in" cx="15.2in" cy="0.5in"/>
      <circle r="0.025in" cx="15.2in" cy="0.7in"/>
      <circle r="0.025in" cx="15.2in" cy="0.7999999999999999in"/>
      <circle r="0.025in" cx="15.2in" cy="0.9in"/>
      <circle r="0.025in" cx="15.2in" cy="1.0in"/>
      <circle r="0.0125in" cx="15.3in" cy="0.5in"/>
      <circle r="0.025in" cx="15.3in" cy="0.6in"/>
      <circle r="0.025in" cx="15.3in" cy="0.7999999999999999in"/>
      <circle r="0.0125in" cx="15.4in" cy="0.5in"/>
      <circle r="0.025in" cx="15.4in" cy="0.6in"/>
      <circle r="0.025in" cx="15.4in" cy="0.7999999999999999in"/>
      <circle r="0.0125in" cx="15.5in" cy="0.5in"/>
      <circle r="0.025in" cx="15.5in" cy="0.7in"/>
      <circle r="0.025in" cx="15.5in" cy="0.7999999999999999in"/>
      <circle r="0.025in" cx="15.5in" cy="0.9in"/>
      <circle r="0.025in" cx="15.5in" cy="1.0in"/>
      <circle r="0.0125in" cx="15.6in" cy="0.5in"/>
      <circle r="0.0125in" cx="15.7in" cy="0.5in"/>
      <circle r="0.025in" cx="15.7in" cy="0.6in"/>
      <circle r="0.025in" cx="15.7in" cy="0.7in"/>
      <circle r="0.025in" cx="15.7in" cy="0.7999999999999999in"/>
      <circle r="0.025in" cx="15.7in" cy="0.9in"/>
      <circle r="0.025in" cx="15.7in" cy="1.0in"/>
      <circle r="0.0125in" cx="15.8in" cy="0.5in"/>
      <circle r="0.025in" cx="15.8in" cy="0.6in"/>
      <circle r="0.025in" cx="15.8in" cy="1.0in"/>
      <circle r="0.0125in" cx="15.9in" cy="0.5in"/>
      <circle r="0.025in" cx="15.9in" cy="0.6in"/>
      <circle r="0.025in" cx="15.9in" cy="1.0in"/>
      <circle r="0.0125in" cx="16.0in" cy="0.5in"/>
      <circle r="0.025in" cx="16.0in" cy="0.7in"/>
      <circle r="0.025in" cx="16.0in" cy="0.7999999999999999in"/>
      <circle r="0.025in" cx="16.0in" cy="0.9in"/>
      <circle r="0.0125in" cx="16.1in" cy="0.5in"/>
      <circle r="0.0125in" cx="16.2in" cy="0.5in"/>
      <circle r="0.025in" cx="16.2in" cy="0.6in"/>
      <circle r="0.025in" cx="16.2in" cy="0.7in"/>
      <circle r="0.025in" cx="16.2in" cy="0.7999999999999999in"/>
      <circle r="0.025in" cx="16.2in" cy="0.9in"/>
      <circle r="0.025in" cx="16.2in" cy="1.0in"/>
      <circle r="0.0125in" cx="16.3in" cy="0.5in"/>
      <circle r="0.025in" cx="16.3in" cy="0.6in"/>
      <circle r="0.025in" cx="16.3in" cy="0.7999999999999999in"/>
      <circle r="0.025in" cx="16.3in" cy="1.0in"/>
      <circle r="0.0125in" cx="16.4in" cy="0.5in"/>
      <circle r="0.025in" cx="16.4in" cy="0.6in"/>
      <circle r="0.025in" cx="16.4in" cy="0.7999999999999999in"/>
      <circle r="0.025in" cx="16.4in" cy="1.0in"/>
      <circle r="0.0125in" cx="16.5in" cy="0.5in"/>
      <circle r="0.025in" cx="16.5in" cy="0.6in"/>
      <circle r="0.025in" cx="16.5in" cy="0.7999999999999999in"/>
      <circle r="0.025in" cx="16.5in" cy="1.0in"/>
      <circle r="0.0125in" cx="16.6in" cy="0.5in"/>
      <circle r="0.0125in" cx="16.7in" cy="0.5in"/>
      <circle r="0.025in" cx="16.7in" cy="0.6in"/>
      <circle r="0.025in" cx="16.7in" cy="0.7in"/>
      <circle r="0.025in" cx="16.7in" cy="0.7999999999999999in"/>
      <circle r="0.025in" cx="16.7in" cy="0.9in"/>
      <circle r="0.025in" cx="16.7in" cy="1.0in"/>
      <circle r="0.0125in" cx="16.8in" cy="0.5in"/>
      <circle r="0.025in" cx="16.8in" cy="0.6in"/>
      <circle r="0.025in" cx="16.8in" cy="0.7999999999999999in"/>
      <circle r="0.0125in" cx="16.9in" cy="0.5in"/>
      <circle r="0.025in" cx="16.9in" cy="0.6in"/>
      <circle r="0.025in" cx="16.9in" cy="0.7999999999999999in"/>
      <circle r="0.025in" cx="16.9in" cy="0.9in"/>
      <circle r="0.0125in" cx="17.0in" cy="0.5in"/>
      <circle r="0.025in" cx="17.0in" cy="0.7in"/>
      <circle r="0.025in" cx="17.0in" cy="1.0in"/>
      <circle r="0.0125in" cx="17.1in" cy="0.5in"/>
      <circle r="0.0125in" cx="17.2in" cy="0.5in"/>
      <circle r="0.0125in" cx="17.3in" cy="0.5in"/>
      <circle r="0.0125in" cx="17.4in" cy="0.5in"/>
      <circle r="0.0125in" cx="17.5in" cy="0.5in"/>

    </g>
    <!-- row 1 -->
    <g style="fill:none;stroke:#1A1A1A"><!-- row, 175.0 bits -->
      <line x1="0.0in" y1="4.1in" x2="17.6in" y2="4.1in" />
      <line x1="17.6in" y1="3.1in" x2="0.0in" y2="3.1in"/>
    </g>
    <g id="pattern " style="fill:#000000;stroke:#000000;">
      <circle r="0.0125in" cx="0.1in" cy="3.5in"/>
      <circle r="0.0125in" cx="0.2in" cy="3.5in"/>
      <circle r="0.0125in" cx="0.3in" cy="3.5in"/>
      <circle r="0.0125in" cx="0.4in" cy="3.5in"/>
      <circle r="0.0125in" cx="0.5in" cy="3.5in"/>
      <circle r="0.0125in" cx="0.6in" cy="3.5in"/>
      <circle r="0.0125in" cx="0.7in" cy="3.5in"/>
      <circle r="0.0125in" cx="0.8in" cy="3.5in"/>
      <circle r="0.0125in" cx="0.9in" cy="3.5in"/>
      <circle r="0.0125in" cx="1.0in" cy="3.5in"/>
      <circle r="0.0125in" cx="1.1in" cy="3.5in"/>
      <circle r="0.0125in" cx="1.2in" cy="3.5in"/>
      <circle r="0.0125in" cx="1.3in" cy="3.5in"/>
      <circle r="0.0125in" cx="1.4in" cy="3.5in"/>
      <circle r="0.0125in" cx="1.5in" cy="3.5in"/>
      <circle r="0.0125in" cx="1.6in" cy="3.5in"/>
      <circle r="0.0125in" cx="1.7in" cy="3.5in"/>
      <circle r="0.0125in" cx="1.8in" cy="3.5in"/>
      <circle r="0.0125in" cx="1.9in" cy="3.5in"/>
      <circle r="0.0125in" cx="2.0in" cy="3.5in"/>
      <circle r="0.0125in" cx="2.1in" cy="3.5in"/>
      <circle r="0.0125in" cx="2.2in" cy="3.5in"/>
      <circle r="0.0125in" cx="2.3in" cy="3.5in"/>
      <circle r="0.0125in" cx="2.4in" cy="3.5in"/>
      <circle r="0.0125in" cx="2.5in" cy="3.5in"/>
      <circle r="0.0125in" cx="2.6in" cy="3.5in"/>
      <circle r="0.0125in" cx="2.7in" cy="3.5in"/>
      <circle r="0.0125in" cx="2.8in" cy="3.5in"/>
      <circle r="0.0125in" cx="2.9in" cy="3.5in"/>
      <circle r="0.0125in" cx="3.0in" cy="3.5in"/>
      <circle r="0.025in" cx="3.0in" cy="3.2in"/>
      <circle r="0.025in" cx="3.0in" cy="3.6in"/>
      <circle r="0.025in" cx="3.0in" cy="3.8in"/>
      <circle r="0.025in" cx="3.0in" cy="3.9000000000000004in"/>
      <circle r="0.025in" cx="3.0in" cy="4.0in"/>
      <circle r="0.0125in" cx="3.1in" cy="3.5in"/>
      <circle r="0.025in" cx="3.1in" cy="3.2in"/>
      <circle r="0.025in" cx="3.1in" cy="3.6in"/>
      <circle r="0.025in" cx="3.1in" cy="3.8in"/>
      <circle r="0.025in" cx="3.1in" cy="3.9000000000000004in"/>
      <circle r="0.025in" cx="3.1in" cy="4.0in"/>
      <circle r="0.0125in" cx="3.2in" cy="3.5in"/>
      <circle r="0.025in" cx="3.2in" cy="3.2in"/>
      <circle r="0.025in" cx="3.2in" cy="3.6in"/>
      <circle r="0.025in" cx="3.2in" cy="3.8in"/>
      <circle r="0.025in" cx="3.2in" cy="3.9000000000000004in"/>
      <circle r="0.025in" cx="3.2in" cy="4.0in"/>
      <circle r="0.0125in" cx="3.3in" cy="3.5in"/>
      <circle r="0.025in" cx="3.3in" cy="3.2in"/>
      <circle r="0.025in" cx="3.3in" cy="3.6in"/>
      <circle r="0.025in" cx="3.3in" cy="3.8in"/>
      <circle r="0.025in" cx="3.3in" cy="3.9000000000000004in"/>
      <circle r="0.025in" cx="3.3in" cy="4.0in"/>
      <circle r="0.0125in" cx="3.4in" cy="3.5in"/>
      <circle r="0.025in" cx="3.4in" cy="3.2in"/>
      <circle r="0.025in" cx="3.4in" cy="3.6in"/>
      <circle r="0.025in" cx="3.4in" cy="3.8in"/>
      <circle r="0.025in" cx="3.4in" cy="3.9000000000000004in"/>
      <circle r="0.025in" cx="3.4in" cy="4.0in"/>
      <circle r="0.0125in" cx="3.5in" cy="3.5in"/>
      <circle r="0.025in" cx="3.5in" cy="3.2in"/>
      <circle r="0.025in" cx="3.5in" cy="3.6in"/>
      <circle r="0.025in" cx="3.5in" cy="3.8in"/>
      <circle r="0.025in" cx="3.5in" cy="3.9000000000000004in"/>
      <circle r="0.025in" cx="3.5in" cy="4.0in"/>
      <circle r="0.0125in" cx="3.6in" cy="3.5in"/>
      <circle r="0.025in" cx="3.6in" cy="3.2in"/>
      <circle r="0.025in" cx="3.6in" cy="3.6in"/>
      <circle r="0.025in" cx="3.6in" cy="3.8in"/>
      <circle r="0.025in" cx="3.6in" cy="3.9000000000000004in"/>
      <circle r="0.025in" cx="3.6in" cy="4.0in"/>
      <circle r="0.0125in" cx="3.7in" cy="3.5in"/>
      <circle r="0.025in" cx="3.7in" cy="3.2in"/>
      <circle r="0.025in" cx="3.7in" cy="3.6in"/>
      <circle r="0.025in" cx="3.7in" cy="3.8in"/>
      <circle r="0.025in" cx="3.7in" cy="3.9000000000000004in"/>
      <circle r="0.025in" cx="3.7in" cy="4.0in"/>
      <circle r="0.0125in" cx="3.8in" cy="3.5in"/>
      <circle r="0.025in" cx="3.8in" cy="3.2in"/>
      <circle r="0.025in" cx="3.8in" cy="3.6in"/>
      <circle r="0.025in" cx="3.8in" cy="3.8in"/>
      <circle r="0.025in" cx="3.8in" cy="3.9000000000000004in"/>
      <circle r="0.025in" cx="3.8in" cy="4.0in"/>
      <circle r="0.0125in" cx="3.9in" cy="3.5in"/>
      <circle r="0.025in" cx="3.9in" cy="3.2in"/>
      <circle r="0.025in" cx="3.9in" cy="3.6in"/>
      <circle r="0.025in" cx="3.9in" cy="3.8in"/>
      <circle r="0.025in" cx="3.9in" cy="3.9000000000000004in"/>
      <circle r="0.025in" cx="3.9in" cy="4.0in"/>
      <circle r="0.0125in" cx="4.0in" cy="3.5in"/>
      <circle r="0.025in" cx="4.0in" cy="3.2in"/>
      <circle r="0.025in" cx="4.0in" cy="3.6in"/>
      <circle r="0.025in" cx="4.0in" cy="3.8in"/>
      <circle r="0.025in" cx="4.0in" cy="3.9000000000000004in"/>
      <circle r="0.025in" cx="4.0in" cy="4.0in"/>
      <circle r="0.0125in" cx="4.1in" cy="3.5in"/>
      <circle r="0.025in" cx="4.1in" cy="3.2in"/>
      <circle r="0.025in" cx="4.1in" cy="3.6in"/>
      <circle r="0.025in" cx="4.1in" cy="3.8in"/>
      <circle r="0.025in" cx="4.1in" cy="3.9000000000000004in"/>
      <circle r="0.025in" cx="4.1in" cy="4.0in"/>
      <circle r="0.0125in" cx="4.2in" cy="3.5in"/>
      <circle r="0.025in" cx="4.2in" cy="3.2in"/>
      <circle r="0.025in" cx="4.2in" cy="3.6in"/>
      <circle r="0.025in" cx="4.2in" cy="3.8in"/>
      <circle r="0.025in" cx="4.2in" cy="3.9000000000000004in"/>
      <circle r="0.025in" cx="4.2in" cy="4.0in"/>
      <circle r="0.0125in" cx="4.3in" cy="3.5in"/>
      <circle r="0.025in" cx="4.3in" cy="3.2in"/>
      <circle r="0.025in" cx="4.3in" cy="3.6in"/>
      <circle r="0.025in" cx="4.3in" cy="3.8in"/>
      <circle r="0.025in" cx="4.3in" cy="3.9000000000000004in"/>
      <circle r="0.025in" cx="4.3in" cy="4.0in"/>
      <circle r="0.0125in" cx="4.4in" cy="3.5in"/>
      <circle r="0.025in" cx="4.4in" cy="3.2in"/>
      <circle r="0.025in" cx="4.4in" cy="3.6in"/>
      <circle r="0.025in" cx="4.4in" cy="3.8in"/>
      <circle r="0.025in" cx="4.4in" cy="3.9000000000000004in"/>
      <circle r="0.025in" cx="4.4in" cy="4.0in"/>
      <circle r="0.0125in" cx="4.5in" cy="3.5in"/>
      <circle r="0.025in" cx="4.5in" cy="3.2in"/>
      <circle r="0.025in" cx="4.5in" cy="3.6in"/>
      <circle r="0.025in" cx="4.5in" cy="3.8in"/>
      <circle r="0.025in" cx="4.5in" cy="3.9000000000000004in"/>
      <circle r="0.025in" cx="4.5in" cy="4.0in"/>
      <circle r="0.0125in" cx="4.6in" cy="3.5in"/>
      <circle r="0.025in" cx="4.6in" cy="3.2in"/>
      <circle r="0.025in" cx="4.6in" cy="3.6in"/>
      <circle r="0.025in" cx="4.6in" cy="3.8in"/>
      <circle r="0.025in" cx="4.6in" cy="3.9000000000000004in"/>
      <circle r="0.025in" cx="4.6in" cy="4.0in"/>
      <circle r="0.0125in" cx="4.7in" cy="3.5in"/>
      <circle r="0.025in" cx="4.7in" cy="3.2in"/>
      <circle r="0.025in" cx="4.7in" cy="3.6in"/>
      <circle r="0.025in" cx="4.7in" cy="3.8in"/>
      <circle r="0.025in" cx="4.7in" cy="3.9000000000000004in"/>
      <circle r="0.025in" cx="4.7in" cy="4.0in"/>
      <circle r="0.0125in" cx="4.8in" cy="3.5in"/>
      <circle r="0.025in" cx="4.8in" cy="3.2in"/>
      <circle r="0.025in" cx="4.8in" cy="3.6in"/>
      <circle r="0.025in" cx="4.8in" cy="3.8in"/>
      <circle r="0.025in" cx="4.8in" cy="3.9000000000000004in"/>
      <circle r="0.025in" cx="4.8in" cy="4.0in"/>
      <circle r="0.0125in" cx="4.9in" cy="3.5in"/>
      <circle r="0.025in" cx="4.9in" cy="3.2in"/>
      <circle r="0.025in" cx="4.9in" cy="3.6in"/>
      <circle r="0.025in" cx="4.9in" cy="3.8in"/>
      <circle r="0.025in" cx="4.9in" cy="3.9000000000000004in"/>
      <circle r="0.025in" cx="4.9in" cy="4.0in"/>
      <circle r="0.0125in" cx="5.0in" cy="3.5in"/>
      <circle r="0.025in" cx="5.0in" cy="3.2in"/>
      <circle r="0.025in" cx="5.0in" cy="3.6in"/>
      <circle r="0.025in" cx="5.0in" cy="3.8in"/>
      <circle r="0.025in" cx="5.0in" cy="3.9000000000000004in"/>
      <circle r="0.025in" cx="5.0in" cy="4.0in"/>
      <circle r="0.0125in" cx="5.1in" cy="3.5in"/>
      <circle r="0.025in" cx="5.1in" cy="3.2in"/>
      <circle r="0.025in" cx="5.1in" cy="3.6in"/>
      <circle r="0.025in" cx="5.1in" cy="3.8in"/>
      <circle r="0.025in" cx="5.1in" cy="3.9000000000000004in"/>
      <circle r="0.025in" cx="5.1in" cy="4.0in"/>
      <circle r="0.0125in" cx="5.2in" cy="3.5in"/>
      <circle r="0.025in" cx="5.2in" cy="3.2in"/>
      <circle r="0.025in" cx="5.2in" cy="3.6in"/>
      <circle r="0.025in" cx="5.2in" cy="3.8in"/>
      <circle r="0.025in" cx="5.2in" cy="3.9000000000000004in"/>
      <circle r="0.025in" cx="5.2in" cy="4.0in"/>
      <circle r="0.0125in" cx="5.3in" cy="3.5in"/>
      <circle r="0.025in" cx="5.3in" cy="3.2in"/>
      <circle r="0.025in" cx="5.3in" cy="3.6in"/>
      <circle r="0.025in" cx="5.3in" cy="3.8in"/>
      <circle r="0.025in" cx="5.3in" cy="3.9000000000000004in"/>
      <circle r="0.025in" cx="5.3in" cy="4.0in"/>
      <circle r="0.0125in" cx="5.4in" cy="3.5in"/>
      <circle r="0.025in" cx="5.4in" cy="3.2in"/>
      <circle r="0.025in" cx="5.4in" cy="3.6in"/>
      <circle r="0.025in" cx="5.4in" cy="3.8in"/>
      <circle r="0.025in" cx="5.4in" cy="3.9000000000000004in"/>
      <circle r="0.025in" cx="5.4in" cy="4.0in"/>
      <circle r="0.0125in" cx="5.5in" cy="3.5in"/>
      <circle r="0.025in" cx="5.5in" cy="3.2in"/>
      <circle r="0.025in" cx="5.5in" cy="3.6in"/>
      <circle r="0.025in" cx="5.5in" cy="3.8in"/>
      <circle r="0.025in" cx="5.5in" cy="3.9000000000000004in"/>
      <circle r="0.025in" cx="5.5in" cy="4.0in"/>
      <circle r="0.0125in" cx="5.6in" cy="3.5in"/>
      <circle r="0.025in" cx="5.6in" cy="3.2in"/>
      <circle r="0.025in" cx="5.6in" cy="3.6in"/>
      <circle r="0.025in" cx="5.6in" cy="3.8in"/>
      <circle r="0.025in" cx="5.6in" cy="3.9000000000000004in"/>
      <circle r="0.025in" cx="5.6in" cy="4.0in"/>
      <circle r="0.0125in" cx="5.7in" cy="3.5in"/>
      <circle r="0.025in" cx="5.7in" cy="3.2in"/>
      <circle r="0.025in" cx="5.7in" cy="3.6in"/>
      <circle r="0.025in" cx="5.7in" cy="3.8in"/>
      <circle r="0.025in" cx="5.7in" cy="3.9000000000000004in"/>
      <circle r="0.025in" cx="5.7in" cy="4.0in"/>
      <circle r="0.0125in" cx="5.8in" cy="3.5in"/>
      <circle r="0.025in" cx="5.8in" cy="3.2in"/>
      <circle r="0.025in" cx="5.8in" cy="3.6in"/>
      <circle r="0.025in" cx="5.8in" cy="3.8in"/>
      <circle r="0.025in" cx="5.8in" cy="3.9000000000000004in"/>
      <circle r="0.025in" cx="5.8in" cy="4.0in"/>
      <circle r="0.0125in" cx="5.9in" cy="3.5in"/>
      <circle r="0.025in" cx="5.9in" cy="3.2in"/>
      <circle r="0.025in" cx="5.9in" cy="3.6in"/>
      <circle r="0.025in" cx="5.9in" cy="3.8in"/>
      <circle r="0.025in" cx="5.9in" cy="3.9000000000000004in"/>
      <circle r="0.025in" cx="5.9in" cy="4.0in"/>
      <circle r="0.0125in" cx="6.0in" cy="3.5in"/>
      <circle r="0.025in" cx="6.0in" cy="3.2in"/>
      <circle r="0.025in" cx="6.0in" cy="3.6in"/>
      <circle r="0.025in" cx="6.0in" cy="3.8in"/>
      <circle r="0.025in" cx="6.0in" cy="3.9000000000000004in"/>
      <circle r="0.025in" cx="6.0in" cy="4.0in"/>
      <circle r="0.0125in" cx="6.1in" cy="3.5in"/>
      <circle r="0.025in" cx="6.1in" cy="3.2in"/>
      <circle r="0.025in" cx="6.1in" cy="3.6in"/>
      <circle r="0.025in" cx="6.1in" cy="3.8in"/>
      <circle r="0.025in" cx="6.1in" cy="3.9000000000000004in"/>
      <circle r="0.025in" cx="6.1in" cy="4.0in"/>
      <circle r="0.0125in" cx="6.2in" cy="3.5in"/>
      <circle r="0.025in" cx="6.2in" cy="3.2in"/>
      <circle r="0.025in" cx="6.2in" cy="3.6in"/>
      <circle r="0.025in" cx="6.2in" cy="3.8in"/>
      <circle r="0.025in" cx="6.2in" cy="3.9000000000000004in"/>
      <circle r="0.025in" cx="6.2in" cy="4.0in"/>
      <circle r="0.0125in" cx="6.3in" cy="3.5in"/>
      <circle r="0.025in" cx="6.3in" cy="3.2in"/>
      <circle r="0.025in" cx="6.3in" cy="3.6in"/>
      <circle r="0.025in" cx="6.3in" cy="3.8in"/>
      <circle r="0.025in" cx="6.3in" cy="3.9000000000000004in"/>
      <circle r="0.025in" cx="6.3in" cy="4.0in"/>
      <circle r="0.0125in" cx="6.4in" cy="3.5in"/>
      <circle r="0.025in" cx="6.4in" cy="3.2in"/>
      <circle r="0.025in" cx="6.4in" cy="3.6in"/>
      <circle r="0.025in" cx="6.4in" cy="3.8in"/>
      <circle r="0.025in" cx="6.4in" cy="3.9000000000000004in"/>
      <circle r="0.025in" cx="6.4in" cy="4.0in"/>
      <circle r="0.0125in" cx="6.5in" cy="3.5in"/>
      <circle r="0.025in" cx="6.5in" cy="3.2in"/>
      <circle r="0.025in" cx="6.5in" cy="3.6in"/>
      <circle r="0.025in" cx="6.5in" cy="3.8in"/>
      <circle r="0.025in" cx="6.5in" cy="3.9000000000000004in"/>
      <circle r="0.025in" cx="6.5in" cy="4.0in"/>
      <circle r="0.0125in" cx="6.6in" cy="3.5in"/>
      <circle r="0.025in" cx="6.6in" cy="3.2in"/>
      <circle r="0.025in" cx="6.6in" cy="3.6in"/>
      <circle r="0.025in" cx="6.6in" cy="3.8in"/>
      <circle r="0.025in" cx="6.6in" cy="3.9000000000000004in"/>
      <circle r="0.025in" cx="6.6in" cy="4.0in"/>
      <circle r="0.0125in" cx="6.7in" cy="3.5in"/>
      <circle r="0.025in" cx="6.7in" cy="3.2in"/>
      <circle r="0.025in" cx="6.7in" cy="3.6in"/>
      <circle r="0.025in" cx="6.7in" cy="3.8in"/>
      <circle r="0.025in" cx="6.7in" cy="3.9000000000000004in"/>
      <circle r="0.025in" cx="6.7in" cy="4.0in"/>
      <circle r="0.0125in" cx="6.8in" cy="3.5in"/>
      <circle r="0.025in" cx="6.8in" cy="3.2in"/>
      <circle r="0.025in" cx="6.8in" cy="3.4in"/>
      <circle r="0.025in" cx="6.8in" cy="3.6in"/>
      <circle r="0.025in" cx="6.8in" cy="3.7in"/>
      <circle r="0.025in" cx="6.8in" cy="3.8in"/>
      <circle r="0.0125in" cx="6.9in" cy="3.5in"/>
      <circle r="0.0125in" cx="7.0in" cy="3.5in"/>
      <circle r="0.0125in" cx="7.1in" cy="3.5in"/>
      <circle r="0.025in" cx="7.1in" cy="3.3000000000000003in"/>
      <circle r="0.025in" cx="7.1in" cy="3.4in"/>
      <circle r="0.025in" cx="7.1in" cy="3.9000000000000004in"/>
      <circle r="0.025in" cx="7.1in" cy="4.0in"/>
      <circle r="0.0125in" cx="7.2in" cy="3.5in"/>
      <circle r="0.025in" cx="7.2in" cy="3.2in"/>
      <circle r="0.025in" cx="7.2in" cy="3.7in"/>
      <circle r="0.0125in" cx="7.3in" cy="3.5in"/>
      <circle r="0.025in" cx="7.3in" cy="3.3000000000000003in"/>
      <circle r="0.025in" cx="7.3in" cy="3.4in"/>
      <circle r="0.025in" cx="7.3in" cy="3.8in"/>
      <circle r="0.025in" cx="7.3in" cy="4.0in"/>
      <circle r="0.0125in" cx="7.4in" cy="3.5in"/>
      <circle r="0.025in" cx="7.4in" cy="3.2in"/>
      <circle r="0.025in" cx="7.4in" cy="3.6in"/>
      <circle r="0.025in" cx="7.4in" cy="3.8in"/>
      <circle r="0.0125in" cx="7.5in" cy="3.5in"/>
      <circle r="0.025in" cx="7.5in" cy="3.2in"/>
      <circle r="0.025in" cx="7.5in" cy="3.4in"/>
      <circle r="0.025in" cx="7.5in" cy="3.9000000000000004in"/>
      <circle r="0.025in" cx="7.5in" cy="4.0in"/>
      <circle r="0.0125in" cx="7.6in" cy="3.5in"/>
      <circle r="0.025in" cx="7.6in" cy="3.2in"/>
      <circle r="0.025in" cx="7.6in" cy="3.7in"/>
      <circle r="0.0125in" cx="7.7in" cy="3.5in"/>
      <circle r="0.025in" cx="7.7in" cy="3.2in"/>
      <circle r="0.025in" cx="7.7in" cy="3.4in"/>
      <circle r="0.025in" cx="7.7in" cy="3.9000000000000004in"/>
      <circle r="0.025in" cx="7.7in" cy="4.0in"/>
      <circle r="0.0125in" cx="7.8in" cy="3.5in"/>
      <circle r="0.025in" cx="7.8in" cy="3.2in"/>
      <circle r="0.025in" cx="7.8in" cy="3.4in"/>
      <circle r="0.025in" cx="7.8in" cy="3.8in"/>
      <circle r="0.025in" cx="7.8in" cy="3.9000000000000004in"/>
      <circle r="0.0125in" cx="7.9in" cy="3.5in"/>
      <circle r="0.025in" cx="7.9in" cy="3.3000000000000003in"/>
      <circle r="0.025in" cx="7.9in" cy="3.6in"/>
      <circle r="0.025in" cx="7.9in" cy="3.9000000000000004in"/>
      <circle r="0.0125in" cx="8.0in" cy="3.5in"/>
      <circle r="0.0125in" cx="8.1in" cy="3.5in"/>
      <circle r="0.025in" cx="8.1in" cy="3.2in"/>
      <circle r="0.0125in" cx="8.2in" cy="3.5in"/>
      <circle r="0.025in" cx="8.2in" cy="3.3000000000000003in"/>
      <circle r="0.025in" cx="8.2in" cy="3.6in"/>
      <circle r="0.0125in" cx="8.3in" cy="3.5in"/>
      <circle r="0.025in" cx="8.3in" cy="3.3000000000000003in"/>
      <circle r="0.025in" cx="8.3in" cy="3.4in"/>
      <circle r="0.025in" cx="8.3in" cy="3.6in"/>
      <circle r="0.025in" cx="8.3in" cy="3.9000000000000004in"/>
      <circle r="0.025in" cx="8.3in" cy="4.0in"/>
      <circle r="0.0125in" cx="8.4in" cy="3.5in"/>
      <circle r="0.025in" cx="8.4in" cy="3.2in"/>
      <circle r="0.025in" cx="8.4in" cy="3.3000000000000003in"/>
      <circle r="0.025in" cx="8.4in" cy="3.4in"/>
      <circle r="0.025in" cx="8.4in" cy="3.7in"/>
      <circle r="0.0125in" cx="8.5in" cy="3.5in"/>
      <circle r="0.025in" cx="8.5in" cy="3.6in"/>
      <circle r="0.025in" cx="8.5in" cy="3.7in"/>
      <circle r="0.025in" cx="8.5in" cy="3.8in"/>
      <circle r="0.025in" cx="8.5in" cy="3.9000000000000004in"/>
      <circle r="0.0125in" cx="8.6in" cy="3.5in"/>
      <circle r="0.025in" cx="8.6in" cy="3.2in"/>
      <circle r="0.025in" cx="8.6in" cy="3.3000000000000003in"/>
      <circle r="0.025in" cx="8.6in" cy="3.4in"/>
      <circle r="0.025in" cx="8.6in" cy="3.6in"/>
      <circle r="0.025in" cx="8.6in" cy="3.7in"/>
      <circle r="0.025in" cx="8.6in" cy="3.8in"/>
      <circle r="0.025in" cx="8.6in" cy="3.9000000000000004in"/>
      <circle r="0.025in" cx="8.6in" cy="4.0in"/>
      <circle r="0.0125in" cx="8.7in" cy="3.5in"/>
      <circle r="0.025in" cx="8.7in" cy="3.3000000000000003in"/>
      <circle r="0.025in" cx="8.7in" cy="3.4in"/>
      <circle r="0.025in" cx="8.7in" cy="3.6in"/>
      <circle r="0.0125in" cx="8.8in" cy="3.5in"/>
      <circle r="0.025in" cx="8.8in" cy="3.4in"/>
      <circle r="0.025in" cx="8.8in" cy="3.6in"/>
      <circle r="0.0125in" cx="8.9in" cy="3.5in"/>
      <circle r="0.025in" cx="8.9in" cy="3.3000000000000003in"/>
      <circle r="0.0125in" cx="9.0in" cy="3.5in"/>
      <circle r="0.025in" cx="9.0in" cy="3.2in"/>
      <circle r="0.025in" cx="9.0in" cy="3.3000000000000003in"/>
      <circle r="0.025in" cx="9.0in" cy="3.4in"/>
      <circle r="0.025in" cx="9.0in" cy="4.0in"/>
      <circle r="0.0125in" cx="9.1in" cy="3.5in"/>
      <circle r="0.025in" cx="9.1in" cy="3.3000000000000003in"/>
      <circle r="0.025in" cx="9.1in" cy="3.4in"/>
      <circle r="0.025in" cx="9.1in" cy="3.6in"/>
      <circle r="0.0125in" cx="9.2in" cy="3.5in"/>
      <circle r="0.025in" cx="9.2in" cy="3.3000000000000003in"/>
      <circle r="0.025in" cx="9.2in" cy="3.6in"/>
      <circle r="0.0125in" cx="9.3in" cy="3.5in"/>
      <circle r="0.025in" cx="9.3in" cy="3.2in"/>
      <circle r="0.025in" cx="9.3in" cy="3.3000000000000003in"/>
      <circle r="0.0125in" cx="9.4in" cy="3.5in"/>
      <circle r="0.025in" cx="9.4in" cy="3.2in"/>
      <circle r="0.0125in" cx="9.5in" cy="3.5in"/>
      <circle r="0.025in" cx="9.5in" cy="3.3000000000000003in"/>
      <circle r="0.025in" cx="9.5in" cy="3.4in"/>
      <circle r="0.025in" cx="9.5in" cy="3.6in"/>
      <circle r="0.025in" cx="9.5in" cy="3.9000000000000004in"/>
      <circle r="0.025in" cx="9.5in" cy="4.0in"/>
      <circle r="0.0125in" cx="9.6in" cy="3.5in"/>
      <circle r="0.025in" cx="9.6in" cy="3.4in"/>
      <circle r="0.025in" cx="9.6in" cy="3.6in"/>
      <circle r="0.0125in" cx="9.7in" cy="3.5in"/>
      <circle r="0.025in" cx="9.7in" cy="3.2in"/>
      <circle r="0.0125in" cx="9.8in" cy="3.5in"/>
      <circle r="0.025in" cx="9.8in" cy="3.3000000000000003in"/>
      <circle r="0.0125in" cx="9.9in" cy="3.5in"/>
      <circle r="0.025in" cx="9.9in" cy="3.3000000000000003in"/>
      <circle r="0.025in" cx="9.9in" cy="3.4in"/>
      <circle r="0.025in" cx="9.9in" cy="3.6in"/>
      <circle r="0.025in" cx="9.9in" cy="3.9000000000000004in"/>
      <circle r="0.0125in" cx="10.0in" cy="3.5in"/>
      <circle r="0.025in" cx="10.0in" cy="3.7in"/>
      <circle r="0.0125in" cx="10.1in" cy="3.5in"/>
      <circle r="0.0125in" cx="10.2in" cy="3.5in"/>
      <circle r="0.025in" cx="10.2in" cy="3.3000000000000003in"/>
      <circle r="0.025in" cx="10.2in" cy="3.6in"/>
      <circle r="0.0125in" cx="10.3in" cy="3.5in"/>
      <circle r="0.025in" cx="10.3in" cy="3.2in"/>
      <circle r="0.025in" cx="10.3in" cy="3.4in"/>
      <circle r="0.025in" cx="10.3in" cy="3.6in"/>
      <circle r="0.025in" cx="10.3in" cy="3.9000000000000004in"/>
      <circle r="0.025in" cx="10.3in" cy="4.0in"/>
      <circle r="0.0125in" cx="10.4in" cy="3.5in"/>
      <circle r="0.025in" cx="10.4in" cy="3.2in"/>
      <circle r="0.025in" cx="10.4in" cy="3.6in"/>
      <circle r="0.0125in" cx="10.5in" cy="3.5in"/>
      <circle r="0.025in" cx="10.5in" cy="3.2in"/>
      <circle r="0.025in" cx="10.5in" cy="3.3000000000000003in"/>
      <circle r="0.025in" cx="10.5in" cy="3.9000000000000004in"/>
      <circle r="0.025in" cx="10.5in" cy="4.0in"/>
      <circle r="0.0125in" cx="10.6in" cy="3.5in"/>
      <circle r="0.025in" cx="10.6in" cy="3.3000000000000003in"/>
      <circle r="0.025in" cx="10.6in" cy="3.6in"/>
      <circle r="0.025in" cx="10.6in" cy="4.0in"/>
      <circle r="0.0125in" cx="10.7in" cy="3.5in"/>
      <circle r="0.025in" cx="10.7in" cy="3.4in"/>
      <circle r="0.025in" cx="10.7in" cy="3.6in"/>
      <circle r="0.025in" cx="10.7in" cy="3.7in"/>
      <circle r="0.025in" cx="10.7in" cy="3.8in"/>
      <circle r="0.025in" cx="10.7in" cy="3.9000000000000004in"/>
      <circle r="0.025in" cx="10.7in" cy="4.0in"/>
      <circle r="0.0125in" cx="10.8in" cy="3.5in"/>
      <circle r="0.025in" cx="10.8in" cy="3.3000000000000003in"/>
      <circle r="0.0125in" cx="10.9in" cy="3.5in"/>
      <circle r="0.025in" cx="10.9in" cy="3.2in"/>
      <circle r="0.025in" cx="10.9in" cy="3.4in"/>
      <circle r="0.025in" cx="10.9in" cy="3.6in"/>
      <circle r="0.025in" cx="10.9in" cy="3.9000000000000004in"/>
      <circle r="0.025in" cx="10.9in" cy="4.0in"/>
      <circle r="0.0125in" cx="11.0in" cy="3.5in"/>
      <circle r="0.025in" cx="11.0in" cy="3.2in"/>
      <circle r="0.025in" cx="11.0in" cy="3.6in"/>
      <circle r="0.0125in" cx="11.1in" cy="3.5in"/>
      <circle r="0.025in" cx="11.1in" cy="3.2in"/>
      <circle r="0.025in" cx="11.1in" cy="3.3000000000000003in"/>
      <circle r="0.025in" cx="11.1in" cy="3.4in"/>
      <circle r="0.025in" cx="11.1in" cy="3.7in"/>
      <circle r="0.025in" cx="11.1in" cy="3.8in"/>
      <circle r="0.025in" cx="11.1in" cy="3.9000000000000004in"/>
      <circle r="0.025in" cx="11.1in" cy="4.0in"/>
      <circle r="0.0125in" cx="11.2in" cy="3.5in"/>
      <circle r="0.025in" cx="11.2in" cy="3.2in"/>
      <circle r="0.025in" cx="11.2in" cy="3.6in"/>
      <circle r="0.0125in" cx="11.3in" cy="3.5in"/>
      <circle r="0.025in" cx="11.3in" cy="3.4in"/>
      <circle r="0.025in" cx="11.3in" cy="3.6in"/>
      <circle r="0.025in" cx="11.3in" cy="3.7in"/>
      <circle r="0.025in" cx="11.3in" cy="3.8in"/>
      <circle r="0.0125in" cx="11.4in" cy="3.5in"/>
      <circle r="0.0125in" cx="11.5in" cy="3.5in"/>
      <circle r="0.025in" cx="11.5in" cy="3.3000000000000003in"/>
      <circle r="0.0125in" cx="11.6in" cy="3.5in"/>
      <circle r="0.025in" cx="11.6in" cy="3.2in"/>
      <circle r="0.025in" cx="11.6in" cy="3.7in"/>
      <circle r="0.0125in" cx="11.7in" cy="3.5in"/>
      <circle r="0.025in" cx="11.7in" cy="3.3000000000000003in"/>
      <circle r="0.025in" cx="11.7in" cy="3.9000000000000004in"/>
      <circle r="0.025in" cx="11.7in" cy="4.0in"/>
      <circle r="0.0125in" cx="11.8in" cy="3.5in"/>
      <circle r="0.025in" cx="11.8in" cy="3.2in"/>
      <circle r="0.025in" cx="11.8in" cy="3.4in"/>
      <circle r="0.025in" cx="11.8in" cy="3.8in"/>
      <circle r="0.025in" cx="11.8in" cy="3.9000000000000004in"/>
      <circle r="0.025in" cx="11.8in" cy="4.0in"/>
      <circle r="0.0125in" cx="11.9in" cy="3.5in"/>
      <circle r="0.025in" cx="11.9in" cy="3.4in"/>
      <circle r="0.0125in" cx="12.0in" cy="3.5in"/>
      <circle r="0.0125in" cx="12.1in" cy="3.5in"/>
      <circle r="0.025in" cx="12.1in" cy="3.3000000000000003in"/>
      <circle r="0.025in" cx="12.1in" cy="3.9000000000000004in"/>
      <circle r="0.025in" cx="12.1in" cy="4.0in"/>
      <circle r="0.0125in" cx="12.2in" cy="3.5in"/>
      <circle r="0.025in" cx="12.2in" cy="3.2in"/>
      <circle r="0.025in" cx="12.2in" cy="3.4in"/>
      <circle r="0.025in" cx="12.2in" cy="3.8in"/>
      <circle r="0.0125in" cx="12.3in" cy="3.5in"/>
      <circle r="0.025in" cx="12.3in" cy="3.3000000000000003in"/>
      <circle r="0.0125in" cx="12.4in" cy="3.5in"/>
      <circle r="0.0125in" cx="12.5in" cy="3.5in"/>
      <circle r="0.025in" cx="12.5in" cy="3.2in"/>
      <circle r="0.025in" cx="12.5in" cy="3.8in"/>
      <circle r="0.0125in" cx="12.6in" cy="3.5in"/>
      <circle r="0.025in" cx="12.6in" cy="3.2in"/>
      <circle r="0.025in" cx="12.6in" cy="3.3000000000000003in"/>
      <circle r="0.0125in" cx="12.7in" cy="3.5in"/>
      <circle r="0.025in" cx="12.7in" cy="3.2in"/>
      <circle r="0.025in" cx="12.7in" cy="3.3000000000000003in"/>
      <circle r="0.025in" cx="12.7in" cy="3.4in"/>
      <circle r="0.025in" cx="12.7in" cy="3.7in"/>
      <circle r="0.025in" cx="12.7in" cy="3.8in"/>
      <circle r="0.025in" cx="12.7in" cy="3.9000000000000004in"/>
      <circle r="0.025in" cx="12.7in" cy="4.0in"/>
      <circle r="0.0125in" cx="12.8in" cy="3.5in"/>
      <circle r="0.025in" cx="12.8in" cy="3.2in"/>
      <circle r="0.025in" cx="12.8in" cy="3.6in"/>
      <circle r="0.0125in" cx="12.9in" cy="3.5in"/>
      <circle r="0.025in" cx="12.9in" cy="3.4in"/>
      <circle r="0.025in" cx="12.9in" cy="3.6in"/>
      <circle r="0.025in" cx="12.9in" cy="3.8in"/>
      <circle r="0.0125in" cx="13.0in" cy="3.5in"/>
      <circle r="0.0125in" cx="13.1in" cy="3.5in"/>
      <circle r="0.025in" cx="13.1in" cy="3.4in"/>
      <circle r="0.025in" cx="13.1in" cy="4.0in"/>
      <circle r="0.0125in" cx="13.2in" cy="3.5in"/>
      <circle r="0.025in" cx="13.2in" cy="3.2in"/>
      <circle r="0.025in" cx="13.2in" cy="3.3000000000000003in"/>
      <circle r="0.025in" cx="13.2in" cy="3.8in"/>
      <circle r="0.025in" cx="13.2in" cy="3.9000000000000004in"/>
      <circle r="0.0125in" cx="13.3in" cy="3.5in"/>
      <circle r="0.025in" cx="13.3in" cy="3.2in"/>
      <circle r="0.0125in" cx="13.4in" cy="3.5in"/>
      <circle r="0.025in" cx="13.4in" cy="3.2in"/>
      <circle r="0.025in" cx="13.4in" cy="3.7in"/>
      <circle r="0.0125in" cx="13.5in" cy="3.5in"/>
      <circle r="0.025in" cx="13.5in" cy="3.2in"/>
      <circle r="0.025in" cx="13.5in" cy="3.4in"/>
      <circle r="0.025in" cx="13.5in" cy="3.6in"/>
      <circle r="0.025in" cx="13.5in" cy="3.9000000000000004in"/>
      <circle r="0.025in" cx="13.5in" cy="4.0in"/>
      <circle r="0.0125in" cx="13.6in" cy="3.5in"/>
      <circle r="0.025in" cx="13.6in" cy="3.2in"/>
      <circle r="0.025in" cx="13.6in" cy="3.6in"/>
      <circle r="0.0125in" cx="13.7in" cy="3.5in"/>
      <circle r="0.025in" cx="13.7in" cy="3.4in"/>
      <circle r="0.0125in" cx="13.8in" cy="3.5in"/>
      <circle r="0.025in" cx="13.8in" cy="3.4in"/>
      <circle r="0.0125in" cx="13.9in" cy="3.5in"/>
      <circle r="0.025in" cx="13.9in" cy="3.9000000000000004in"/>
      <circle r="0.025in" cx="13.9in" cy="4.0in"/>
      <circle r="0.0125in" cx="14.0in" cy="3.5in"/>
      <circle r="0.025in" cx="14.0in" cy="3.2in"/>
      <circle r="0.025in" cx="14.0in" cy="3.3000000000000003in"/>
      <circle r="0.025in" cx="14.0in" cy="3.6in"/>
      <circle r="0.025in" cx="14.0in" cy="4.0in"/>
      <circle r="0.0125in" cx="14.1in" cy="3.5in"/>
      <circle r="0.025in" cx="14.1in" cy="3.2in"/>
      <circle r="0.025in" cx="14.1in" cy="3.3000000000000003in"/>
      <circle r="0.025in" cx="14.1in" cy="3.6in"/>
      <circle r="0.025in" cx="14.1in" cy="3.8in"/>
      <circle r="0.025in" cx="14.1in" cy="3.9000000000000004in"/>
      <circle r="0.025in" cx="14.1in" cy="4.0in"/>
      <circle r="0.0125in" cx="14.2in" cy="3.5in"/>
      <circle r="0.025in" cx="14.2in" cy="3.2in"/>
      <circle r="0.025in" cx="14.2in" cy="3.3000000000000003in"/>
      <circle r="0.0125in" cx="14.3in" cy="3.5in"/>
      <circle r="0.0125in" cx="14.4in" cy="3.5in"/>
      <circle r="0.0125in" cx="14.5in" cy="3.5in"/>
      <circle r="0.025in" cx="14.5in" cy="3.2in"/>
      <circle r="0.025in" cx="14.5in" cy="3.6in"/>
      <circle r="0.025in" cx="14.5in" cy="3.8in"/>
      <circle r="0.025in" cx="14.5in" cy="3.9000000000000004in"/>
      <circle r="0.025in" cx="14.5in" cy="4.0in"/>
      <circle r="0.0125in" cx="14.6in" cy="3.5in"/>
      <circle r="0.025in" cx="14.6in" cy="3.2in"/>
      <circle r="0.0125in" cx="14.7in" cy="3.5in"/>
      <circle r="0.025in" cx="14.7in" cy="3.2in"/>
      <circle r="0.025in" cx="14.7in" cy="3.7in"/>
      <circle r="0.025in" cx="14.7in" cy="3.9000000000000004in"/>
      <circle r="0.025in" cx="14.7in" cy="4.0in"/>
      <circle r="0.0125in" cx="14.8in" cy="3.5in"/>
      <circle r="0.025in" cx="14.8in" cy="3.7in"/>
      <circle r="0.025in" cx="14.8in" cy="4.0in"/>
      <circle r="0.0125in" cx="14.9in" cy="3.5in"/>
      <circle r="0.025in" cx="14.9in" cy="3.6in"/>
      <circle r="0.025in" cx="14.9in" cy="3.7in"/>
      <circle r="0.025in" cx="14.9in" cy="3.8in"/>
      <circle r="0.025in" cx="14.9in" cy="3.9000000000000004in"/>
      <circle r="0.025in" cx="14.9in" cy="4.0in"/>
      <circle r="0.0125in" cx="15.0in" cy="3.5in"/>
      <circle r="0.025in" cx="15.0in" cy="3.2in"/>
      <circle r="0.0125in" cx="15.1in" cy="3.5in"/>
      <circle r="0.025in" cx="15.1in" cy="3.2in"/>
      <circle r="0.025in" cx="15.1in" cy="3.3000000000000003in"/>
      <circle r="0.025in" cx="15.1in" cy="3.9000000000000004in"/>
      <circle r="0.025in" cx="15.1in" cy="4.0in"/>
      <circle r="0.0125in" cx="15.2in" cy="3.5in"/>
      <circle r="0.025in" cx="15.2in" cy="3.2in"/>
      <circle r="0.025in" cx="15.2in" cy="3.4in"/>
      <circle r="0.025in" cx="15.2in" cy="3.6in"/>
      <circle r="0.025in" cx="15.2in" cy="3.7in"/>
      <circle r="0.0125in" cx="15.3in" cy="3.5in"/>
      <circle r="0.025in" cx="15.3in" cy="3.3000000000000003in"/>
      <circle r="0.025in" cx="15.3in" cy="3.6in"/>
      <circle r="0.025in" cx="15.3in" cy="3.8in"/>
      <circle r="0.025in" cx="15.3in" cy="3.9000000000000004in"/>
      <circle r="0.0125in" cx="15.4in" cy="3.5in"/>
      <circle r="0.0125in" cx="15.5in" cy="3.5in"/>
      <circle r="0.025in" cx="15.5in" cy="3.2in"/>
      <circle r="0.025in" cx="15.5in" cy="3.3000000000000003in"/>
      <circle r="0.025in" cx="15.5in" cy="3.6in"/>
      <circle r="0.025in" cx="15.5in" cy="4.0in"/>
      <circle r="0.0125in" cx="15.6in" cy="3.5in"/>
      <circle r="0.025in" cx="15.6in" cy="3.3000000000000003in"/>
      <circle r="0.025in" cx="15.6in" cy="3.6in"/>
      <circle r="0.025in" cx="15.6in" cy="4.0in"/>
      <circle r="0.0125in" cx="15.7in" cy="3.5in"/>
      <circle r="0.025in" cx="15.7in" cy="3.2in"/>
      <circle r="0.025in" cx="15.7in" cy="3.3000000000000003in"/>
      <circle r="0.025in" cx="15.7in" cy="3.6in"/>
      <circle r="0.025in" cx="15.7in" cy="3.9000000000000004in"/>
      <circle r="0.025in" cx="15.7in" cy="4.0in"/>
      <circle r="0.0125in" cx="15.8in" cy="3.5in"/>
      <circle r="0.025in" cx="15.8in" cy="3.2in"/>
      <circle r="0.025in" cx="15.8in" cy="3.3000000000000003in"/>
      <circle r="0.025in" cx="15.8in" cy="3.6in"/>
      <circle r="0.025in" cx="15.8in" cy="4.0in"/>
      <circle r="0.0125in" cx="15.9in" cy="3.5in"/>
      <circle r="0.025in" cx="15.9in" cy="3.3000000000000003in"/>
      <circle r="0.025in" cx="15.9in" cy="3.4in"/>
      <circle r="0.025in" cx="15.9in" cy="3.6in"/>
      <circle r="0.025in" cx="15.9in" cy="3.7in"/>
      <circle r="0.025in" cx="15.9in" cy="3.8in"/>
      <circle r="0.025in" cx="15.9in" cy="3.9000000000000004in"/>
      <circle r="0.025in" cx="15.9in" cy="4.0in"/>
      <circle r="0.0125in" cx="16.0in" cy="3.5in"/>
      <circle r="0.025in" cx="16.0in" cy="4.0in"/>
      <circle r="0.0125in" cx="16.1in" cy="3.5in"/>
      <circle r="0.025in" cx="16.1in" cy="3.2in"/>
      <circle r="0.025in" cx="16.1in" cy="3.3000000000000003in"/>
      <circle r="0.025in" cx="16.1in" cy="3.9000000000000004in"/>
      <circle r="0.025in" cx="16.1in" cy="4.0in"/>
      <circle r="0.0125in" cx="16.2in" cy="3.5in"/>
      <circle r="0.025in" cx="16.2in" cy="3.4in"/>
      <circle r="0.025in" cx="16.2in" cy="3.6in"/>
      <circle r="0.025in" cx="16.2in" cy="3.7in"/>
      <circle r="0.025in" cx="16.2in" cy="4.0in"/>
      <circle r="0.0125in" cx="16.3in" cy="3.5in"/>
      <circle r="0.025in" cx="16.3in" cy="3.3000000000000003in"/>
      <circle r="0.0125in" cx="16.4in" cy="3.5in"/>
      <circle r="0.0125in" cx="16.5in" cy="3.5in"/>
      <circle r="0.025in" cx="16.5in" cy="3.9000000000000004in"/>
      <circle r="0.025in" cx="16.5in" cy="4.0in"/>
      <circle r="0.0125in" cx="16.6in" cy="3.5in"/>
      <circle r="0.025in" cx="16.6in" cy="3.8in"/>
      <circle r="0.025in" cx="16.6in" cy="3.9000000000000004in"/>
      <circle r="0.0125in" cx="16.7in" cy="3.5in"/>
      <circle r="0.025in" cx="16.7in" cy="3.2in"/>
      <circle r="0.025in" cx="16.7in" cy="3.3000000000000003in"/>
      <circle r="0.025in" cx="16.7in" cy="3.9000000000000004in"/>
      <circle r="0.025in" cx="16.7in" cy="4.0in"/>
      <circle r="0.0125in" cx="16.8in" cy="3.5in"/>
      <circle r="0.025in" cx="16.8in" cy="3.2in"/>
      <circle r="0.025in" cx="16.8in" cy="3.4in"/>
      <circle r="0.025in" cx="16.8in" cy="3.9000000000000004in"/>
      <circle r="0.0125in" cx="16.9in" cy="3.5in"/>
      <circle r="0.0125in" cx="17.0in" cy="3.5in"/>
      <circle r="0.025in" cx="17.0in" cy="3.2in"/>
      <circle r="0.025in" cx="17.0in" cy="3.3000000000000003in"/>
      <circle r="0.025in" cx="17.0in" cy="3.4in"/>
      <circle r="0.025in" cx="17.0in" cy="3.6in"/>
      <circle r="0.025in" cx="17.0in" cy="3.7in"/>
      <circle r="0.025in" cx="17.0in" cy="3.8in"/>
      <circle r="0.025in" cx="17.0in" cy="3.9000000000000004in"/>
      <circle r="0.025in" cx="17.0in" cy="4.0in"/>
      <circle r="0.0125in" cx="17.1in" cy="3.5in"/>
      <circle r="0.025in" cx="17.1in" cy="3.3000000000000003in"/>
      <circle r="0.025in" cx="17.1in" cy="3.9000000000000004in"/>
      <circle r="0.025in" cx="17.1in" cy="4.0in"/>
      <circle r="0.0125in" cx="17.2in" cy="3.5in"/>
      <circle r="0.025in" cx="17.2in" cy="3.3000000000000003in"/>
      <circle r="0.025in" cx="17.2in" cy="3.6in"/>
      <circle r="0.0125in" cx="17.3in" cy="3.5in"/>
      <circle r="0.025in" cx="17.3in" cy="3.2in"/>
      <circle r="0.025in" cx="17.3in" cy="3.3000000000000003in"/>
      <circle r="0.025in" cx="17.3in" cy="3.4in"/>
      <circle r="0.025in" cx="17.3in" cy="4.0in"/>
      <circle r="0.0125in" cx="17.4in" cy="3.5in"/>
      <circle r="0.0125in" cx="17.5in" cy="3.5in"/>
      <circle r="0.025in" cx="17.5in" cy="3.2in"/>
      <circle r="0.025in" cx="17.5in" cy="3.3000000000000003in"/>
      <circle r="0.025in" cx="17.5in" cy="3.4in"/>
      <circle r="0.025in" cx="17.5in" cy="3.7in"/>
      <circle r="0.025in" cx="17.5in" cy="3.8in"/>
      <circle r="0.025in" cx="17.5in" cy="4.0in"/>

    </g>
    <!-- row 2 -->
    <g style="fill:none;stroke:#1A1A1A"><!-- end, 102 bits -->
      <line x1="0.0in" y1="7.1in" x2="10.8in" y2="7.1in" />
      <line x1="10.8in" y1="7.1in" x2="10.3in" y2="6.6in"/>
      <line x1="10.3in" y1="6.6in" x2="10.8in" y2="6.1in" />
      <line x1="10.8in" y1="6.1in" x2="0.0in" y2="6.1in"/>
    </g>
    <g id="pattern " style="fill:#000000;stroke:#000000;">
      <circle r="0.0125in" cx="0.1in" cy="6.5in"/>
      <circle r="0.025in" cx="0.1in" cy="6.199999999999999in"/>
      <circle r="0.025in" cx="0.1in" cy="6.3999999999999995in"/>
      <circle r="0.025in" cx="0.1in" cy="6.699999999999999in"/>
      <circle r="0.0125in" cx="0.2in" cy="6.5in"/>
      <circle r="0.025in" cx="0.2in" cy="6.3in"/>
      <circle r="0.025in" cx="0.2in" cy="6.3999999999999995in"/>
      <circle r="0.025in" cx="0.2in" cy="6.8in"/>
      <circle r="0.0125in" cx="0.3in" cy="6.5in"/>
      <circle r="0.0125in" cx="0.4in" cy="6.5in"/>
      <circle r="0.025in" cx="0.4in" cy="6.199999999999999in"/>
      <circle r="0.025in" cx="0.4in" cy="6.3999999999999995in"/>
      <circle r="0.025in" cx="0.4in" cy="6.6in"/>
      <circle r="0.025in" cx="0.4in" cy="6.8999999999999995in"/>
      <circle r="0.025in" cx="0.4in" cy="7.0in"/>
      <circle r="0.0125in" cx="0.5in" cy="6.5in"/>
      <circle r="0.025in" cx="0.5in" cy="6.199999999999999in"/>
      <circle r="0.025in" cx="0.5in" cy="6.6in"/>
      <circle r="0.0125in" cx="0.6in" cy="6.5in"/>
      <circle r="0.025in" cx="0.6in" cy="6.3999999999999995in"/>
      <circle r="0.025in" cx="0.6in" cy="6.8999999999999995in"/>
      <circle r="0.025in" cx="0.6in" cy="7.0in"/>
      <circle r="0.0125in" cx="0.7in" cy="6.5in"/>
      <circle r="0.025in" cx="0.7in" cy="6.699999999999999in"/>
      <circle r="0.0125in" cx="0.8in" cy="6.5in"/>
      <circle r="0.025in" cx="0.8in" cy="6.199999999999999in"/>
      <circle r="0.025in" cx="0.8in" cy="6.3999999999999995in"/>
      <circle r="0.025in" cx="0.8in" cy="6.6in"/>
      <circle r="0.025in" cx="0.8in" cy="6.8999999999999995in"/>
      <circle r="0.025in" cx="0.8in" cy="7.0in"/>
      <circle r="0.0125in" cx="0.9in" cy="6.5in"/>
      <circle r="0.025in" cx="0.9in" cy="6.199999999999999in"/>
      <circle r="0.025in" cx="0.9in" cy="6.6in"/>
      <circle r="0.0125in" cx="1.0in" cy="6.5in"/>
      <circle r="0.025in" cx="1.0in" cy="6.199999999999999in"/>
      <circle r="0.025in" cx="1.0in" cy="6.3in"/>
      <circle r="0.025in" cx="1.0in" cy="6.8999999999999995in"/>
      <circle r="0.025in" cx="1.0in" cy="7.0in"/>
      <circle r="0.0125in" cx="1.1in" cy="6.5in"/>
      <circle r="0.0125in" cx="1.2in" cy="6.5in"/>
      <circle r="0.025in" cx="1.2in" cy="6.3999999999999995in"/>
      <circle r="0.025in" cx="1.2in" cy="6.8999999999999995in"/>
      <circle r="0.025in" cx="1.2in" cy="7.0in"/>
      <circle r="0.0125in" cx="1.3in" cy="6.5in"/>
      <circle r="0.025in" cx="1.3in" cy="6.699999999999999in"/>
      <circle r="0.025in" cx="1.3in" cy="6.8999999999999995in"/>
      <circle r="0.0125in" cx="1.4in" cy="6.5in"/>
      <circle r="0.025in" cx="1.4in" cy="6.199999999999999in"/>
      <circle r="0.025in" cx="1.4in" cy="6.3in"/>
      <circle r="0.025in" cx="1.4in" cy="6.3999999999999995in"/>
      <circle r="0.025in" cx="1.4in" cy="6.8999999999999995in"/>
      <circle r="0.025in" cx="1.4in" cy="7.0in"/>
      <circle r="0.0125in" cx="1.5in" cy="6.5in"/>
      <circle r="0.025in" cx="1.5in" cy="6.199999999999999in"/>
      <circle r="0.025in" cx="1.5in" cy="6.3999999999999995in"/>
      <circle r="0.025in" cx="1.5in" cy="6.6in"/>
      <circle r="0.025in" cx="1.5in" cy="6.699999999999999in"/>
      <circle r="0.0125in" cx="1.6in" cy="6.5in"/>
      <circle r="0.025in" cx="1.6in" cy="6.6in"/>
      <circle r="0.025in" cx="1.6in" cy="6.699999999999999in"/>
      <circle r="0.0125in" cx="1.7in" cy="6.5in"/>
      <circle r="0.0125in" cx="1.8in" cy="6.5in"/>
      <circle r="0.025in" cx="1.8in" cy="6.199999999999999in"/>
      <circle r="0.025in" cx="1.8in" cy="6.3in"/>
      <circle r="0.025in" cx="1.8in" cy="6.3999999999999995in"/>
      <circle r="0.025in" cx="1.8in" cy="6.699999999999999in"/>
      <circle r="0.025in" cx="1.8in" cy="6.8in"/>
      <circle r="0.025in" cx="1.8in" cy="6.8999999999999995in"/>
      <circle r="0.025in" cx="1.8in" cy="7.0in"/>
      <circle r="0.0125in" cx="1.9in" cy="6.5in"/>
      <circle r="0.025in" cx="1.9in" cy="6.199999999999999in"/>
      <circle r="0.025in" cx="1.9in" cy="6.6in"/>
      <circle r="0.0125in" cx="2.0in" cy="6.5in"/>
      <circle r="0.025in" cx="2.0in" cy="6.3in"/>
      <circle r="0.025in" cx="2.0in" cy="6.6in"/>
      <circle r="0.025in" cx="2.0in" cy="6.8in"/>
      <circle r="0.025in" cx="2.0in" cy="6.8999999999999995in"/>
      <circle r="0.025in" cx="2.0in" cy="7.0in"/>
      <circle r="0.0125in" cx="2.1in" cy="6.5in"/>
      <circle r="0.025in" cx="2.1in" cy="6.199999999999999in"/>
      <circle r="0.025in" cx="2.1in" cy="6.3in"/>
      <circle r="0.025in" cx="2.1in" cy="6.3999999999999995in"/>
      <circle r="0.025in" cx="2.1in" cy="6.6in"/>
      <circle r="0.025in" cx="2.1in" cy="6.699999999999999in"/>
      <circle r="0.025in" cx="2.1in" cy="6.8in"/>
      <circle r="0.025in" cx="2.1in" cy="6.8999999999999995in"/>
      <circle r="0.025in" cx="2.1in" cy="7.0in"/>
      <circle r="0.0125in" cx="2.2in" cy="6.5in"/>
      <circle r="0.025in" cx="2.2in" cy="6.199999999999999in"/>
      <circle r="0.025in" cx="2.2in" cy="6.3999999999999995in"/>
      <circle r="0.025in" cx="2.2in" cy="6.6in"/>
      <circle r="0.025in" cx="2.2in" cy="6.8999999999999995in"/>
      <circle r="0.025in" cx="2.2in" cy="7.0in"/>
      <circle r="0.0125in" cx="2.3in" cy="6.5in"/>
      <circle r="0.025in" cx="2.3in" cy="6.199999999999999in"/>
      <circle r="0.025in" cx="2.3in" cy="6.6in"/>
      <circle r="0.0125in" cx="2.4in" cy="6.5in"/>
      <circle r="0.025in" cx="2.4in" cy="6.8999999999999995in"/>
      <circle r="0.025in" cx="2.4in" cy="7.0in"/>
      <circle r="0.0125in" cx="2.5in" cy="6.5in"/>
      <circle r="0.025in" cx="2.5in" cy="6.199999999999999in"/>
      <circle r="0.025in" cx="2.5in" cy="6.3in"/>
      <circle r="0.025in" cx="2.5in" cy="6.6in"/>
      <circle r="0.025in" cx="2.5in" cy="7.0in"/>
      <circle r="0.0125in" cx="2.6in" cy="6.5in"/>
      <circle r="0.025in" cx="2.6in" cy="6.3in"/>
      <circle r="0.025in" cx="2.6in" cy="6.8in"/>
      <circle r="0.025in" cx="2.6in" cy="6.8999999999999995in"/>
      <circle r="0.025in" cx="2.6in" cy="7.0in"/>
      <circle r="0.0125in" cx="2.7in" cy="6.5in"/>
      <circle r="0.025in" cx="2.7in" cy="6.3in"/>
      <circle r="0.0125in" cx="2.8in" cy="6.5in"/>
      <circle r="0.025in" cx="2.8in" cy="6.3999999999999995in"/>
      <circle r="0.025in" cx="2.8in" cy="7.0in"/>
      <circle r="0.0125in" cx="2.9in" cy="6.5in"/>
      <circle r="0.025in" cx="2.9in" cy="6.3999999999999995in"/>
      <circle r="0.025in" cx="2.9in" cy="6.6in"/>
      <circle r="0.0125in" cx="3.0in" cy="6.5in"/>
      <circle r="0.025in" cx="3.0in" cy="6.3in"/>
      <circle r="0.0125in" cx="3.1in" cy="6.5in"/>
      <circle r="0.025in" cx="3.1in" cy="6.3in"/>
      <circle r="0.025in" cx="3.1in" cy="6.3999999999999995in"/>
      <circle r="0.025in" cx="3.1in" cy="7.0in"/>
      <circle r="0.0125in" cx="3.2in" cy="6.5in"/>
      <circle r="0.0125in" cx="3.3in" cy="6.5in"/>
      <circle r="0.0125in" cx="3.4in" cy="6.5in"/>
      <circle r="0.025in" cx="3.4in" cy="6.8999999999999995in"/>
      <circle r="0.025in" cx="3.4in" cy="7.0in"/>
      <circle r="0.0125in" cx="3.5in" cy="6.5in"/>
      <circle r="0.025in" cx="3.5in" cy="6.199999999999999in"/>
      <circle r="0.0125in" cx="3.6in" cy="6.5in"/>
      <circle r="0.025in" cx="3.6in" cy="6.3999999999999995in"/>
      <circle r="0.025in" cx="3.6in" cy="6.8999999999999995in"/>
      <circle r="0.025in" cx="3.6in" cy="7.0in"/>
      <circle r="0.0125in" cx="3.7in" cy="6.5in"/>
      <circle r="0.025in" cx="3.7in" cy="6.3999999999999995in"/>
      <circle r="0.025in" cx="3.7in" cy="6.6in"/>
      <circle r="0.0125in" cx="3.8in" cy="6.5in"/>
      <circle r="0.025in" cx="3.8in" cy="6.3999999999999995in"/>
      <circle r="0.025in" cx="3.8in" cy="7.0in"/>
      <circle r="0.0125in" cx="3.9in" cy="6.5in"/>
      <circle r="0.025in" cx="3.9in" cy="6.199999999999999in"/>
      <circle r="0.025in" cx="3.9in" cy="6.3in"/>
      <circle r="0.025in" cx="3.9in" cy="6.8in"/>
      <circle r="0.025in" cx="3.9in" cy="6.8999999999999995in"/>
      <circle r="0.0125in" cx="4.0in" cy="6.5in"/>
      <circle r="0.025in" cx="4.0in" cy="6.3999999999999995in"/>
      <circle r="0.025in" cx="4.0in" cy="6.6in"/>
      <circle r="0.025in" cx="4.0in" cy="6.8999999999999995in"/>
      <circle r="0.0125in" cx="4.1in" cy="6.5in"/>
      <circle r="0.0125in" cx="4.2in" cy="6.5in"/>
      <circle r="0.0125in" cx="4.3in" cy="6.5in"/>
      <circle r="0.0125in" cx="4.4in" cy="6.5in"/>
      <circle r="0.025in" cx="4.4in" cy="6.199999999999999in"/>
      <circle r="0.025in" cx="4.4in" cy="6.3in"/>
      <circle r="0.025in" cx="4.4in" cy="6.3999999999999995in"/>
      <circle r="0.025in" cx="4.4in" cy="6.699999999999999in"/>
      <circle r="0.025in" cx="4.4in" cy="6.8in"/>
      <circle r="0.025in" cx="4.4in" cy="6.8999999999999995in"/>
      <circle r="0.025in" cx="4.4in" cy="7.0in"/>
      <circle r="0.0125in" cx="4.5in" cy="6.5in"/>
      <circle r="0.025in" cx="4.5in" cy="6.199999999999999in"/>
      <circle r="0.025in" cx="4.5in" cy="6.3999999999999995in"/>
      <circle r="0.025in" cx="4.5in" cy="6.699999999999999in"/>
      <circle r="0.0125in" cx="4.6in" cy="6.5in"/>
      <circle r="0.025in" cx="4.6in" cy="6.3in"/>
      <circle r="0.025in" cx="4.6in" cy="6.6in"/>
      <circle r="0.025in" cx="4.6in" cy="6.8in"/>
      <circle r="0.025in" cx="4.6in" cy="6.8999999999999995in"/>
      <circle r="0.025in" cx="4.6in" cy="7.0in"/>
      <circle r="0.0125in" cx="4.7in" cy="6.5in"/>
      <circle r="0.0125in" cx="4.8in" cy="6.5in"/>
      <circle r="0.025in" cx="4.8in" cy="6.699999999999999in"/>
      <circle r="0.0125in" cx="4.9in" cy="6.5in"/>
      <circle r="0.0125in" cx="5.0in" cy="6.5in"/>
      <circle r="0.025in" cx="5.0in" cy="6.199999999999999in"/>
      <circle r="0.025in" cx="5.0in" cy="6.3in"/>
      <circle r="0.025in" cx="5.0in" cy="6.3999999999999995in"/>
      <circle r="0.025in" cx="5.0in" cy="6.699999999999999in"/>
      <circle r="0.025in" cx="5.0in" cy="6.8in"/>
      <circle r="0.025in" cx="5.0in" cy="6.8999999999999995in"/>
      <circle r="0.025in" cx="5.0in" cy="7.0in"/>
      <circle r="0.0125in" cx="5.1in" cy="6.5in"/>
      <circle r="0.025in" cx="5.1in" cy="6.199999999999999in"/>
      <circle r="0.025in" cx="5.1in" cy="6.3999999999999995in"/>
      <circle r="0.025in" cx="5.1in" cy="6.699999999999999in"/>
      <circle r="0.0125in" cx="5.2in" cy="6.5in"/>
      <circle r="0.025in" cx="5.2in" cy="6.199999999999999in"/>
      <circle r="0.025in" cx="5.2in" cy="6.3999999999999995in"/>
      <circle r="0.025in" cx="5.2in" cy="6.699999999999999in"/>
      <circle r="0.025in" cx="5.2in" cy="6.8in"/>
      <circle r="0.025in" cx="5.2in" cy="6.8999999999999995in"/>
      <circle r="0.025in" cx="5.2in" cy="7.0in"/>
      <circle r="0.0125in" cx="5.3in" cy="6.5in"/>
      <circle r="0.025in" cx="5.3in" cy="6.199999999999999in"/>
      <circle r="0.0125in" cx="5.4in" cy="6.5in"/>
      <circle r="0.025in" cx="5.4in" cy="6.3999999999999995in"/>
      <circle r="0.025in" cx="5.4in" cy="6.6in"/>
      <circle r="0.025in" cx="5.4in" cy="6.699999999999999in"/>
      <circle r="0.0125in" cx="5.5in" cy="6.5in"/>
      <circle r="0.0125in" cx="5.6in" cy="6.5in"/>
      <circle r="0.025in" cx="5.6in" cy="6.199999999999999in"/>
      <circle r="0.025in" cx="5.6in" cy="6.3in"/>
      <circle r="0.025in" cx="5.6in" cy="6.3999999999999995in"/>
      <circle r="0.025in" cx="5.6in" cy="6.699999999999999in"/>
      <circle r="0.025in" cx="5.6in" cy="6.8in"/>
      <circle r="0.025in" cx="5.6in" cy="6.8999999999999995in"/>
      <circle r="0.0125in" cx="5.7in" cy="6.5in"/>
      <circle r="0.0125in" cx="5.8in" cy="6.5in"/>
      <circle r="0.025in" cx="5.8in" cy="6.3in"/>
      <circle r="0.025in" cx="5.8in" cy="6.6in"/>
      <circle r="0.025in" cx="5.8in" cy="6.699999999999999in"/>
      <circle r="0.025in" cx="5.8in" cy="6.8999999999999995in"/>
      <circle r="0.0125in" cx="5.9in" cy="6.5in"/>
      <circle r="0.025in" cx="5.9in" cy="6.199999999999999in"/>
      <circle r="0.025in" cx="5.9in" cy="6.3in"/>
      <circle r="0.025in" cx="5.9in" cy="6.3999999999999995in"/>
      <circle r="0.025in" cx="5.9in" cy="6.6in"/>
      <circle r="0.025in" cx="5.9in" cy="6.699999999999999in"/>
      <circle r="0.025in" cx="5.9in" cy="6.8in"/>
      <circle r="0.025in" cx="5.9in" cy="6.8999999999999995in"/>
      <circle r="0.025in" cx="5.9in" cy="7.0in"/>
      <circle r="0.0125in" cx="6.0in" cy="6.5in"/>
      <circle r="0.025in" cx="6.0in" cy="6.199999999999999in"/>
      <circle r="0.025in" cx="6.0in" cy="6.8999999999999995in"/>
      <circle r="0.025in" cx="6.0in" cy="7.0in"/>
      <circle r="0.0125in" cx="6.1in" cy="6.5in"/>
      <circle r="0.025in" cx="6.1in" cy="6.199999999999999in"/>
      <circle r="0.025in" cx="6.1in" cy="6.3999999999999995in"/>
      <circle r="0.025in" cx="6.1in" cy="6.6in"/>
      <circle r="0.025in" cx="6.1in" cy="6.699999999999999in"/>
      <circle r="0.0125in" cx="6.2in" cy="6.5in"/>
      <circle r="0.025in" cx="6.2in" cy="6.3in"/>
      <circle r="0.025in" cx="6.2in" cy="6.3999999999999995in"/>
      <circle r="0.025in" cx="6.2in" cy="6.699999999999999in"/>
      <circle r="0.0125in" cx="6.3in" cy="6.5in"/>
      <circle r="0.0125in" cx="6.4in" cy="6.5in"/>
      <circle r="0.025in" cx="6.4in" cy="6.3in"/>
      <circle r="0.025in" cx="6.4in" cy="6.8999999999999995in"/>
      <circle r="0.025in" cx="6.4in" cy="7.0in"/>
      <circle r="0.0125in" cx="6.5in" cy="6.5in"/>
      <circle r="0.025in" cx="6.5in" cy="6.199999999999999in"/>
      <circle r="0.025in" cx="6.5in" cy="6.3999999999999995in"/>
      <circle r="0.025in" cx="6.5in" cy="6.699999999999999in"/>
      <circle r="0.0125in" cx="6.6in" cy="6.5in"/>
      <circle r="0.025in" cx="6.6in" cy="6.199999999999999in"/>
      <circle r="0.025in" cx="6.6in" cy="6.3in"/>
      <circle r="0.025in" cx="6.6in" cy="6.6in"/>
      <circle r="0.025in" cx="6.6in" cy="6.699999999999999in"/>
      <circle r="0.025in" cx="6.6in" cy="6.8in"/>
      <circle r="0.025in" cx="6.6in" cy="6.8999999999999995in"/>
      <circle r="0.025in" cx="6.6in" cy="7.0in"/>
      <circle r="0.0125in" cx="6.7in" cy="6.5in"/>
      <circle r="0.025in" cx="6.7in" cy="6.199999999999999in"/>
      <circle r="0.025in" cx="6.7in" cy="6.3in"/>
      <circle r="0.025in" cx="6.7in" cy="6.6in"/>
      <circle r="0.025in" cx="6.7in" cy="6.8in"/>
      <circle r="0.025in" cx="6.7in" cy="6.8999999999999995in"/>
      <circle r="0.025in" cx="6.7in" cy="7.0in"/>
      <circle r="0.0125in" cx="6.8in" cy="6.5in"/>
      <circle r="0.0125in" cx="6.9in" cy="6.5in"/>
      <circle r="0.0125in" cx="7.0in" cy="6.5in"/>
      <circle r="0.0125in" cx="7.1in" cy="6.5in"/>
      <circle r="0.0125in" cx="7.2in" cy="6.5in"/>
      <circle r="0.0125in" cx="7.3in" cy="6.5in"/>
      <circle r="0.0125in" cx="7.4in" cy="6.5in"/>
      <circle r="0.0125in" cx="7.5in" cy="6.5in"/>
      <circle r="0.0125in" cx="7.6in" cy="6.5in"/>
      <circle r="0.0125in" cx="7.7in" cy="6.5in"/>
      <circle r="0.0125in" cx="7.8in" cy="6.5in"/>
      <circle r="0.0125in" cx="7.9in" cy="6.5in"/>
      <circle r="0.0125in" cx="8.0in" cy="6.5in"/>
      <circle r="0.0125in" cx="8.1in" cy="6.5in"/>
      <circle r="0.0125in" cx="8.2in" cy="6.5in"/>
      <circle r="0.0125in" cx="8.3in" cy="6.5in"/>
      <circle r="0.0125in" cx="8.4in" cy="6.5in"/>
      <circle r="0.0125in" cx="8.5in" cy="6.5in"/>
      <circle r="0.0125in" cx="8.6in" cy="6.5in"/>
      <circle r="0.0125in" cx="8.7in" cy="6.5in"/>
      <circle r="0.0125in" cx="8.8in" cy="6.5in"/>
      <circle r="0.0125in" cx="8.9in" cy="6.5in"/>
      <circle r="0.0125in" cx="9.0in" cy="6.5in"/>
      <circle r="0.0125in" cx="9.1in" cy="6.5in"/>
      <circle r="0.0125in" cx="9.2in" cy="6.5in"/>
      <circle r="0.0125in" cx="9.3in" cy="6.5in"/>
      <circle r="0.0125in" cx="9.4in" cy="6.5in"/>
      <circle r="0.0125in" cx="9.5in" cy="6.5in"/>
      <circle r="0.0125in" cx="9.6in" cy="6.5in"/>
      <circle r="0.0125in" cx="9.7in" cy="6.5in"/>
      <circle r="0.0125in" cx="9.8in" cy="6.5in"/>
      <circle r="0.0125in" cx="9.9in" cy="6.5in"/>
      <circle r="0.0125in" cx="10.0in" cy="6.5in"/>
      <circle r="0.0125in" cx="10.1in" cy="6.5in"/>
      <circle r="0.0125in" cx="10.2in" cy="6.5in"/>
      <circle r="0.0125in" cx="10.3in" cy="6.5in"/><!-- lead-out -->
    </g>
  </g>
</svg>