<?xml version="1.0"?>
<svg version="1.1" xmlns="http://www.w3.org/2000/svg" height="1.0in" width="8.7in" style="background:white">
  <g id="tape" transform="translate(46,0)" style="stroke-width:1.0">
    <g id="border" style="fill:none;stroke:#1A1A1A">
      <line x1="0" y1="0" x2="-0.5in" y2="0.5in" />
      <line x1="-0.5in" y1="0.5in" x2="0" y2="1.0in" />
      <line x1="0" y1="1.0in" x2="8.2in" y2="1.0in" />
      <line x1="8.2in" y1="1.0in" x2="7.7in" y2="0.5in"/>
      <line x1="7.7in" y1="0.5in" x2="8.2in" y2="0" />
      <line x1="8.2in" y1="0" x2="0" y2="0"/>
    </g>
    <g id="pattern " style="fill:#000000;stroke:#000000;">
      <circle r="0.0125in" cx="-0.2in" cy="0.4in"/>
      <circle r="0.0125in" cx="-0.1in" cy="0.4in"/>
      <circle r="0.0125in" cx="0" cy="0.4in"/>
      <circle r="0.0125in" cx="0.1in" cy="0.4in"/>
      <circle r="0.0125in" cx="0.2in" cy="0.4in"/>
      <circle r="0.0125in" cx="0.3in" cy="0.4in"/>
      <circle r="0.0125in" cx="0.4in" cy="0.4in"/>
      <circle r="0.0125in" cx="0.5in" cy="0.4in"/>
      <circle r="0.0125in" cx="0.6in" cy="0.4in"/>
      <circle r="0.025in" cx="0.6in" cy="0.6in"/>
      <circle r="0.025in" cx="0.6in" cy="0.7in"/>
      <circle r="0.025in" cx="0.6in" cy="0.8in"/>
      <circle r="0.0125in" cx="0.7in" cy="0.4in"/>
      <circle r="0.025in" cx="0.7in" cy="0.5in"/>
      <circle r="0.025in" cx="0.7in" cy="0.6in"/>
      <circle r="0.0125in" cx="0.8in" cy="0.4in"/>
      <circle r="0.025in" cx="0.8in" cy="0.1in"/>
      <circle r="0.025in" cx="0.8in" cy="0.3in"/>
      <circle r="0.025in" cx="0.8in" cy="0.5in"/>
      <circle r="0.025in" cx="0.8in" cy="0.6in"/>
      <circle r="0.025in" cx="0.8in" cy="0.7in"/>
      <circle r="0.025in" cx="0.8in" cy="0.8in"/>
      <circle r="0.0125in" cx="0.9in" cy="0.4in"/>
      <circle r="0.025in" cx="0.9in" cy="0.2in"/>
      <circle r="0.025in" cx="0.9in" cy="0.3in"/>
      <circle r="0.025in" cx="0.9in" cy="0.6in"/>
      <circle r="0.025in" cx="0.9in" cy="0.7in"/>
      <circle r="0.025in" cx="0.9in" cy="0.9in"/>
      <circle r="0.0125in" cx="1.0in" cy="0.4in"/>
      <circle r="0.025in" cx="1.0in" cy="0.3in"/>
      <circle r="0.025in" cx="1.0in" cy="0.5in"/>
      <circle r="0.025in" cx="1.0in" cy="0.6in"/>
      <circle r="0.025in" cx="1.0in" cy="0.7in"/>
      <circle r="0.025in" cx="1.0in" cy="0.9in"/>
      <circle r="0.0125in" cx="1.1in" cy="0.4in"/>
      <circle r="0.025in" cx="1.1in" cy="0.3in"/>
      <circle r="0.025in" cx="1.1in" cy="0.5in"/>
      <circle r="0.025in" cx="1.1in" cy="0.6in"/>
      <circle r="0.025in" cx="1.1in" cy="0.7in"/>
      <circle r="0.0125in" cx="1.2in" cy="0.4in"/>
      <circle r="0.025in" cx="1.2in" cy="0.3in"/>
      <circle r="0.025in" cx="1.2in" cy="0.5in"/>
      <circle r="0.025in" cx="1.2in" cy="0.6in"/>
      <circle r="0.025in" cx="1.2in" cy="0.7in"/>
      <circle r="0.025in" cx="1.2in" cy="0.9in"/>
      <circle r="0.0125in" cx="1.3in" cy="0.4in"/>
      <circle r="0.025in" cx="1.3in" cy="0.2in"/>
      <circle r="0.025in" cx="1.3in" cy="0.3in"/>
      <circle r="0.025in" cx="1.3in" cy="0.6in"/>
      <circle r="0.025in" cx="1.3in" cy="0.7in"/>
      <circle r="0.025in" cx="1.3in" cy="0.9in"/>
      <circle r="0.0125in" cx="1.4in" cy="0.4in"/>
      <circle r="0.025in" cx="1.4in" cy="0.1in"/>
      <circle r="0.025in" cx="1.4in" cy="0.3in"/>
      <circle r="0.025in" cx="1.4in" cy="0.5in"/>
      <circle r="0.025in" cx="1.4in" cy="0.6in"/>
      <circle r="0.025in" cx="1.4in" cy="0.7in"/>
      <circle r="0.025in" cx="1.4in" cy="0.8in"/>
      <circle r="0.0125in" cx="1.5in" cy="0.4in"/>
      <circle r="0.025in" cx="1.5in" cy="0.5in"/>
      <circle r="0.025in" cx="1.5in" cy="0.6in"/>
      <circle r="0.0125in" cx="1.6in" cy="0.4in"/>
      <circle r="0.025in" cx="1.6in" cy="0.6in"/>
      <circle r="0.025in" cx="1.6in" cy="0.7in"/>
      <circle r="0.025in" cx="1.6in" cy="0.8in"/>
      <circle r="0.0125in" cx="1.7in" cy="0.4in"/>
      <circle r="0.0125in" cx="1.8in" cy="0.4in"/>
      <circle r="0.0125in" cx="1.9in" cy="0.4in"/>
      <circle r="0.0125in" cx="2.0in" cy="0.4in"/>
      <circle r="0.025in" cx="2.0in" cy="0.2in"/>
      <circle r="0.025in" cx="2.0in" cy="0.3in"/>
      <circle r="0.025in" cx="2.0in" cy="0.5in"/>
      <circle r="0.025in" cx="2.0in" cy="0.6in"/>
      <circle r="0.0125in" cx="2.1in" cy="0.4in"/>
      <circle r="0.025in" cx="2.1in" cy="0.5in"/>
      <circle r="0.025in" cx="2.1in" cy="0.6in"/>
      <circle r="0.025in" cx="2.1in" cy="0.7in"/>
      <circle r="0.025in" cx="2.1in" cy="0.9in"/>
      <circle r="0.0125in" cx="2.2in" cy="0.4in"/>
      <circle r="0.025in" cx="2.2in" cy="0.1in"/>
      <circle r="0.025in" cx="2.2in" cy="0.3in"/>
      <circle r="0.025in" cx="2.2in" cy="0.5in"/>
      <circle r="0.025in" cx="2.2in" cy="0.6in"/>
      <circle r="0.025in" cx="2.2in" cy="0.7in"/>
      <circle r="0.025in" cx="2.2in" cy="0.8in"/>
      <circle r="0.0125in" cx="2.3in" cy="0.4in"/>
      <circle r="0.025in" cx="2.3in" cy="0.2in"/>
      <circle r="0.025in" cx="2.3in" cy="0.3in"/>
      <circle r="0.025in" cx="2.3in" cy="0.6in"/>
      <circle r="0.025in" cx="2.3in" cy="0.7in"/>
      <circle r="0.0125in" cx="2.4in" cy="0.4in"/>
      <circle r="0.025in" cx="2.4in" cy="0.3in"/>
      <circle r="0.025in" cx="2.4in" cy="0.5in"/>
      <circle r="0.025in" cx="2.4in" cy="0.6in"/>
      <circle r="0.025in" cx="2.4in" cy="0.7in"/>
      <circle r="0.0125in" cx="2.5in" cy="0.4in"/>
      <circle r="0.025in" cx="2.5in" cy="0.3in"/>
      <circle r="0.025in" cx="2.5in" cy="0.5in"/>
      <circle r="0.025in" cx="2.5in" cy="0.6in"/>
      <circle r="0.025in" cx="2.5in" cy="0.7in"/>
      <circle r="0.0125in" cx="2.6in" cy="0.4in"/>
      <circle r="0.025in" cx="2.6in" cy="0.3in"/>
      <circle r="0.025in" cx="2.6in" cy="0.5in"/>
      <circle r="0.025in" cx="2.6in" cy="0.6in"/>
      <circle r="0.025in" cx="2.6in" cy="0.7in"/>
      <circle r="0.0125in" cx="2.7in" cy="0.4in"/>
      <circle r="0.025in" cx="2.7in" cy="0.2in"/>
      <circle r="0.025in" cx="2.7in" cy="0.3in"/>
      <circle r="0.025in" cx="2.7in" cy="0.6in"/>
      <circle r="0.025in" cx="2.7in" cy="0.7in"/>
      <circle r="0.0125in" cx="2.8in" cy="0.4in"/>
      <circle r="0.025in" cx="2.8in" cy="0.1in"/>
      <circle r="0.025in" cx="2.8in" cy="0.3in"/>
      <circle r="0.025in" cx="2.8in" cy="0.5in"/>
      <circle r="0.025in" cx="2.8in" cy="0.6in"/>
      <circle r="0.025in" cx="2.8in" cy="0.7in"/>
      <circle r="0.025in" cx="2.8in" cy="0.8in"/>
      <circle r="0.0125in" cx="2.9in" cy="0.4in"/>
      <circle r="0.025in" cx="2.9in" cy="0.5in"/>
      <circle r="0.025in" cx="2.9in" cy="0.6in"/>
      <circle r="0.025in" cx="2.9in" cy="0.7in"/>
      <circle r="0.025in" cx="2.9in" cy="0.9in"/>
      <circle r="0.0125in" cx="3.0in" cy="0.4in"/>
      <circle r="0.025in" cx="3.0in" cy="0.2in"/>
      <circle r="0.025in" cx="3.0in" cy="0.3in"/>
      <circle r="0.025in" cx="3.0in" cy="0.5in"/>
      <circle r="0.025in" cx="3.0in" cy="0.6in"/>
      <circle r="0.0125in" cx="3.1in" cy="0.4in"/>
      <circle r="0.0125in" cx="3.2in" cy="0.4in"/>
      <circle r="0.0125in" cx="3.3in" cy="0.4in"/>
      <circle r="0.0125in" cx="3.4in" cy="0.4in"/>
      <circle r="0.025in" cx="3.4in" cy="0.6in"/>
      <circle r="0.025in" cx="3.4in" cy="0.7in"/>
      <circle r="0.025in" cx="3.4in" cy="0.8in"/>
      <circle r="0.0125in" cx="3.5in" cy="0.4in"/>
      <circle r="0.025in" cx="3.5in" cy="0.5in"/>
      <circle r="0.025in" cx="3.5in" cy="0.6in"/>
      <circle r="0.0125in" cx="3.6in" cy="0.4in"/>
      <circle r="0.025in" cx="3.6in" cy="0.1in"/>
      <circle r="0.025in" cx="3.6in" cy="0.3in"/>
      <circle r="0.025in" cx="3.6in" cy="0.5in"/>
      <circle r="0.025in" cx="3.6in" cy="0.6in"/>
      <circle r="0.025in" cx="3.6in" cy="0.7in"/>
      <circle r="0.025in" cx="3.6in" cy="0.8in"/>
      <circle r="0.0125in" cx="3.7in" cy="0.4in"/>
      <circle r="0.025in" cx="3.7in" cy="0.2in"/>
      <circle r="0.025in" cx="3.7in" cy="0.3in"/>
      <circle r="0.025in" cx="3.7in" cy="0.6in"/>
      <circle r="0.025in" cx="3.7in" cy="0.7in"/>
      <circle r="0.025in" cx="3.7in" cy="0.9in"/>
      <circle r="0.0125in" cx="3.8in" cy="0.4in"/>
      <circle r="0.025in" cx="3.8in" cy="0.3in"/>
      <circle r="0.025in" cx="3.8in" cy="0.5in"/>
      <circle r="0.025in" cx="3.8in" cy="0.6in"/>
      <circle r="0.025in" cx="3.8in" cy="0.7in"/>
      <circle r="0.025in" cx="3.8in" cy="0.9in"/>
      <circle r="0.0125in" cx="3.9in" cy="0.4in"/>
      <circle r="0.025in" cx="3.9in" cy="0.3in"/>
      <circle r="0.025in" cx="3.9in" cy="0.5in"/>
      <circle r="0.025in" cx="3.9in" cy="0.6in"/>
      <circle r="0.025in" cx="3.9in" cy="0.7in"/>
      <circle r="0.0125in" cx="4.0in" cy="0.4in"/>
      <circle r="0.025in" cx="4.0in" cy="0.3in"/>
      <circle r="0.025in" cx="4.0in" cy="0.5in"/>
      <circle r="0.025in" cx="4.0in" cy="0.6in"/>
      <circle r="0.025in" cx="4.0in" cy="0.7in"/>
      <circle r="0.025in" cx="4.0in" cy="0.9in"/>
      <circle r="0.0125in" cx="4.1in" cy="0.4in"/>
      <circle r="0.025in" cx="4.1in" cy="0.2in"/>
      <circle r="0.025in" cx="4.1in" cy="0.3in"/>
      <circle r="0.025in" cx="4.1in" cy="0.6in"/>
      <circle r="0.025in" cx="4.1in" cy="0.7in"/>
      <circle r="0.025in" cx="4.1in" cy="0.9in"/>
      <circle r="0.0125in" cx="4.2in" cy="0.4in"/>
      <circle r="0.025in" cx="4.2in" cy="0.1in"/>
      <circle r="0.025in" cx="4.2in" cy="0.3in"/>
      <circle r="0.025in" cx="4.2in" cy="0.5in"/>
      <circle r="0.025in" cx="4.2in" cy="0.6in"/>
      <circle r="0.025in" cx="4.2in" cy="0.7in"/>
      <circle r="0.025in" cx="4.2in" cy="0.8in"/>
      <circle r="0.0125in" cx="4.3in" cy="0.4in"/>
      <circle r="0.025in" cx="4.3in" cy="0.5in"/>
      <circle r="0.025in" cx="4.3in" cy="0.6in"/>
      <circle r="0.0125in" cx="4.4in" cy="0.4in"/>
      <circle r="0.025in" cx="4.4in" cy="0.6in"/>
      <circle r="0.025in" cx="4.4in" cy="0.7in"/>
      <circle r="0.025in" cx="4.4in" cy="0.8in"/>
      <circle r="0.0125in" cx="4.5in" cy="0.4in"/>
      <circle r="0.0125in" cx="4.6in" cy="0.4in"/>
      <circle r="0.0125in" cx="4.7in" cy="0.4in"/>
      <circle r="0.0125in" cx="4.8in" cy="0.4in"/>
      <circle r="0.025in" cx="4.8in" cy="0.2in"/>
      <circle r="0.025in" cx="4.8in" cy="0.3in"/>
      <circle r="0.025in" cx="4.8in" cy="0.5in"/>
      <circle r="0.025in" cx="4.8in" cy="0.6in"/>
      <circle r="0.0125in" cx="4.9in" cy="0.4in"/>
      <circle r="0.025in" cx="4.9in" cy="0.5in"/>
      <circle r="0.025in" cx="4.9in" cy="0.6in"/>
      <circle r="0.025in" cx="4.9in" cy="0.7in"/>
      <circle r="0.025in" cx="4.9in" cy="0.9in"/>
      <circle r="0.0125in" cx="5.0in" cy="0.4in"/>
      <circle r="0.025in" cx="5.0in" cy="0.1in"/>
      <circle r="0.025in" cx="5.0in" cy="0.3in"/>
      <circle r="0.025in" cx="5.0in" cy="0.5in"/>
      <circle r="0.025in" cx="5.0in" cy="0.6in"/>
      <circle r="0.025in" cx="5.0in" cy="0.7in"/>
      <circle r="0.025in" cx="5.0in" cy="0.8in"/>
      <circle r="0.0125in" cx="5.1in" cy="0.4in"/>
      <circle r="0.025in" cx="5.1in" cy="0.2in"/>
      <circle r="0.025in" cx="5.1in" cy="0.3in"/>
      <circle r="0.025in" cx="5.1in" cy="0.6in"/>
      <circle r="0.025in" cx="5.1in" cy="0.7in"/>
      <circle r="0.0125in" cx="5.2in" cy="0.4in"/>
      <circle r="0.025in" cx="5.2in" cy="0.3in"/>
      <circle r="0.025in" cx="5.2in" cy="0.5in"/>
      <circle r="0.025in" cx="5.2in" cy="0.6in"/>
      <circle r="0.025in" cx="5.2in" cy="0.7in"/>
      <circle r="0.0125in" cx="5.3in" cy="0.4in"/>
      <circle r="0.025in" cx="5.3in" cy="0.3in"/>
      <circle r="0.025in" cx="5.3in" cy="0.5in"/>
      <circle r="0.025in" cx="5.3in" cy="0.6in"/>
      <circle r="0.025in" cx="5.3in" cy="0.7in"/>
      <circle r="0.0125in" cx="5.4in" cy="0.4in"/>
      <circle r="0.025in" cx="5.4in" cy="0.3in"/>
      <circle r="0.025in" cx="5.4in" cy="0.5in"/>
      <circle r="0.025in" cx="5.4in" cy="0.6in"/>
      <circle r="0.025in" cx="5.4in" cy="0.7in"/>
      <circle r="0.0125in" cx="5.5in" cy="0.4in"/>
      <circle r="0.025in" cx="5.5in" cy="0.2in"/>
      <circle r="0.025in" cx="5.5in" cy="0.3in"/>
      <circle r="0.025in" cx="5.5in" cy="0.6in"/>
      <circle r="0.025in" cx="5.5in" cy="0.7in"/>
      <circle r="0.0125in" cx="5.6in" cy="0.4in"/>
      <circle r="0.025in" cx="5.6in" cy="0.1in"/>
      <circle r="0.025in" cx="5.6in" cy="0.3in"/>
      <circle r="0.025in" cx="5.6in" cy="0.5in"/>
      <circle r="0.025in" cx="5.6in" cy="0.6in"/>
      <circle r="0.025in" cx="5.6in" cy="0.7in"/>
      <circle r="0.025in" cx="5.6in" cy="0.8in"/>
      <circle r="0.0125in" cx="5.7in" cy="0.4in"/>
      <circle r="0.025in" cx="5.7in" cy="0.5in"/>
      <circle r="0.025in" cx="5.7in" cy="0.6in"/>
      <circle r="0.025in" cx="5.7in" cy="0.7in"/>
      <circle r="0.025in" cx="5.7in" cy="0.9in"/>
      <circle r="0.0125in" cx="5.8in" cy="0.4in"/>
      <circle r="0.025in" cx="5.8in" cy="0.2in"/>
      <circle r="0.025in" cx="5.8in" cy="0.3in"/>
      <circle r="0.025in" cx="5.8in" cy="0.5in"/>
      <circle r="0.025in" cx="5.8in" cy="0.6in"/>
      <circle r="0.0125in" cx="5.9in" cy="0.4in"/>
      <circle r="0.0125in" cx="6.0in" cy="0.4in"/>
      <circle r="0.0125in" cx="6.1in" cy="0.4in"/>
      <circle r="0.0125in" cx="6.2in" cy="0.4in"/>
      <circle r="0.025in" cx="6.2in" cy="0.6in"/>
      <circle r="0.025in" cx="6.2in" cy="0.7in"/>
      <circle r="0.025in" cx="6.2in" cy="0.8in"/>
      <circle r="0.0125in" cx="6.3in" cy="0.4in"/>
      <circle r="0.025in" cx="6.3in" cy="0.5in"/>
      <circle r="0.025in" cx="6.3in" cy="0.6in"/>
      <circle r="0.0125in" cx="6.4in" cy="0.4in"/>
      <circle r="0.025in" cx="6.4in" cy="0.1in"/>
      <circle r="0.025in" cx="6.4in" cy="0.3in"/>
      <circle r="0.025in" cx="6.4in" cy="0.5in"/>
      <circle r="0.025in" cx="6.4in" cy="0.6in"/>
      <circle r="0.025in" cx="6.4in" cy="0.7in"/>
      <circle r="0.025in" cx="6.4in" cy="0.8in"/>
      <circle r="0.0125in" cx="6.5in" cy="0.4in"/>
      <circle r="0.025in" cx="6.5in" cy="0.2in"/>
      <circle r="0.025in" cx="6.5in" cy="0.3in"/>
      <circle r="0.025in" cx="6.5in" cy="0.6in"/>
      <circle r="0.025in" cx="6.5in" cy="0.7in"/>
      <circle r="0.025in" cx="6.5in" cy="0.9in"/>
      <circle r="0.0125in" cx="6.6in" cy="0.4in"/>
      <circle r="0.025in" cx="6.6in" cy="0.3in"/>
      <circle r="0.025in" cx="6.6in" cy="0.5in"/>
      <circle r="0.025in" cx="6.6in" cy="0.6in"/>
      <circle r="0.025in" cx="6.6in" cy="0.7in"/>
      <circle r="0.025in" cx="6.6in" cy="0.9in"/>
      <circle r="0.0125in" cx="6.7in" cy="0.4in"/>
      <circle r="0.025in" cx="6.7in" cy="0.3in"/>
      <circle r="0.025in" cx="6.7in" cy="0.5in"/>
      <circle r="0.025in" cx="6.7in" cy="0.6in"/>
      <circle r="0.025in" cx="6.7in" cy="0.7in"/>
      <circle r="0.0125in" cx="6.8in" cy="0.4in"/>
      <circle r="0.025in" cx="6.8in" cy="0.3in"/>
      <circle r="0.025in" cx="6.8in" cy="0.5in"/>
      <circle r="0.025in" cx="6.8in" cy="0.6in"/>
      <circle r="0.025in" cx="6.8in" cy="0.7in"/>
      <circle r="0.025in" cx="6.8in" cy="0.9in"/>
      <circle r="0.0125in" cx="6.9in" cy="0.4in"/>
      <circle r="0.025in" cx="6.9in" cy="0.2in"/>
      <circle r="0.025in" cx="6.9in" cy="0.3in"/>
      <circle r="0.025in" cx="6.9in" cy="0.6in"/>
      <circle r="0.025in" cx="6.9in" cy="0.7in"/>
      <circle r="0.025in" cx="6.9in" cy="0.9in"/>
      <circle r="0.0125in" cx="7.0in" cy="0.4in"/>
      <circle r="0.025in" cx="7.0in" cy="0.1in"/>
      <circle r="0.025in" cx="7.0in" cy="0.3in"/>
      <circle r="0.025in" cx="7.0in" cy="0.5in"/>
      <circle r="0.025in" cx="7.0in" cy="0.6in"/>
      <circle r="0.025in" cx="7.0in" cy="0.7in"/>
      <circle r="0.025in" cx="7.0in" cy="0.8in"/>
      <circle r="0.0125in" cx="7.1in" cy="0.4in"/>
      <circle r="0.025in" cx="7.1in" cy="0.5in"/>
      <circle r="0.025in" cx="7.1in" cy="0.6in"/>
      <circle r="0.0125in" cx="7.2in" cy="0.4in"/>
      <circle r="0.025in" cx="7.2in" cy="0.6in"/>
      <circle r="0.025in" cx="7.2in" cy="0.7in"/>
      <circle r="0.025in" cx="7.2in" cy="0.8in"/>
      <circle r="0.0125in" cx="7.3in" cy="0.4in"/>
      <circle r="0.0125in" cx="7.4in" cy="0.4in"/>
      <circle r="0.0125in" cx="7.5in" cy="0.4in"/>
      <circle r="0.0125in" cx="7.6in" cy="0.4in"/>
      <circle r="0.0125in" cx="7.7in" cy="0.4in"/>
    </g>
  </g>
</svg>